<svg xmlns="http://www.w3.org/2000/svg" width="28" height="30" viewBox="0 0 28 30"><defs><style>.a{fill:#333;}</style></defs><path class="a" d="M92.834,17.6A1.665,1.665,0,0,1,94,18.032a1.383,1.383,0,0,1,.477,1.063v8.836A1.352,1.352,0,0,1,94,28.965a1.665,1.665,0,0,1-1.163.434H92.3a1.665,1.665,0,0,1-1.163-.434,1.352,1.352,0,0,1-.477-1.033V19.1a1.383,1.383,0,0,1,.477-1.063A1.665,1.665,0,0,1,92.3,17.6h.537Zm-24.183,0a1.56,1.56,0,0,1,1.133.434,1.425,1.425,0,0,1,.447,1.063v8.836a1.391,1.391,0,0,1-.447,1.033,1.56,1.56,0,0,1-1.133.434h-.537a1.665,1.665,0,0,1-1.163-.434,1.352,1.352,0,0,1-.477-1.033V19.1a1.383,1.383,0,0,1,.477-1.063,1.665,1.665,0,0,1,1.163-.434h.537Zm16.46-6.949a6.379,6.379,0,0,1,1.118.659,7.865,7.865,0,0,1,1.118.988,7.151,7.151,0,0,1,.939,1.243,5.048,5.048,0,0,1,.581,1.423H71.931a6.029,6.029,0,0,1,1.506-2.606,10.192,10.192,0,0,1,2.072-1.618l-1.521-2.4q-.06-.06-.015-.225a.7.7,0,0,1,.313-.345.629.629,0,0,1,.447-.195A.451.451,0,0,1,75,7.653l1.551,2.456a8.7,8.7,0,0,1,1.759-.6,8.909,8.909,0,0,1,5.7.629l1.58-2.486a.316.316,0,0,1,.224-.06,1.183,1.183,0,0,1,.492.18q.3.15.343.27a.16.16,0,0,1-.015.18Zm-8.32,2.576a.918.918,0,1,0-.656-.27A.89.89,0,0,0,76.791,13.225Zm7.335-.12a.918.918,0,1,0-.656-.27A.89.89,0,0,0,84.127,13.1Zm4.741,3.744.03,13.479a1.537,1.537,0,0,1-.432,1.108,1.412,1.412,0,0,1-1.059.449h-.417V36.08a1.464,1.464,0,0,1-.432,1.048,1.412,1.412,0,0,1-1.059.449h-.865a1.379,1.379,0,0,1-1.029-.449,1.465,1.465,0,0,1-.432-1.048V31.886H77.686V36.08a1.465,1.465,0,0,1-.432,1.048,1.412,1.412,0,0,1-1.059.449H75.33a1.379,1.379,0,0,1-1.029-.449,1.464,1.464,0,0,1-.432-1.048V31.886h-.328a1.413,1.413,0,0,1-1.059-.449,1.537,1.537,0,0,1-.432-1.108V16.849H88.868Z" transform="translate(-66.474 -7.577)"/></svg>