<svg xmlns="http://www.w3.org/2000/svg" xmlns:xlink="http://www.w3.org/1999/xlink" width="20" height="20" viewBox="0 0 20 20"><defs><style>.a{fill:#fff;stroke:#707070;}.b{clip-path:url(#a);}.c{fill:#838b9c;}</style><clipPath id="a"><rect class="a" width="20" height="20" transform="translate(1700 437)"/></clipPath></defs><g class="b" transform="translate(-1700 -437)"><g transform="translate(20 17.356)"><path class="c" d="M9.192,14.2H.692a.632.632,0,1,1,0-1.257h8.5a.632.632,0,1,1,0,1.257Zm0-3.534H.692a.632.632,0,1,1,0-1.257h8.5a.632.632,0,1,1,0,1.257Zm0-3.535H.692A.663.663,0,0,1,0,6.506a.663.663,0,0,1,.692-.628h8.5a.663.663,0,0,1,.692.628A.663.663,0,0,1,9.192,7.134ZM6.9,1.257H3.346A.664.664,0,0,1,2.654.628.663.663,0,0,1,3.346,0H6.9A.663.663,0,0,1,7.6.628.663.663,0,0,1,6.9,1.257Z" transform="translate(1685.058 419.644)"/><path class="c" d="M15.894,0H14.475a.641.641,0,0,0-.655.625.641.641,0,0,0,.655.625h1.419a.809.809,0,0,1,.561.224.736.736,0,0,1,.235.535V17.991a.736.736,0,0,1-.235.535.808.808,0,0,1-.561.224H2.106a.808.808,0,0,1-.561-.224.736.736,0,0,1-.235-.535V2.009a.736.736,0,0,1,.235-.535.808.808,0,0,1,.561-.224H3.526A.641.641,0,0,0,4.181.625.641.641,0,0,0,3.526,0H2.106A2.065,2.065,0,0,0,0,2.009V17.991A2.065,2.065,0,0,0,2.106,20H15.894A2.066,2.066,0,0,0,18,17.991V2.009A2.065,2.065,0,0,0,15.894,0Z" transform="translate(1681 419.644)"/></g></g></svg>