<svg xmlns="http://www.w3.org/2000/svg" width="20" height="20" viewBox="0 0 20 20"><defs><style>.a{fill:none;}.b{fill:#838b9c;stroke:#838b9c;stroke-width:0.2px;}.c,.d{stroke:none;}.d{fill:#838b9c;}</style></defs><g transform="translate(-1700 -130)"><g class="a" transform="translate(1700 130)"><path class="c" d="M13.283.311a1,1,0,0,1,1.246.516l1.327,2.834a1,1,0,0,0,.482.482l2.834,1.327a1,1,0,0,1,.516,1.246L18.623,9.66a1,1,0,0,0,0,.681l1.066,2.943a1,1,0,0,1-.516,1.246l-2.834,1.327a1,1,0,0,0-.482.482l-1.327,2.834a1,1,0,0,1-1.246.516L10.34,18.623a1,1,0,0,0-.681,0L6.717,19.689a1,1,0,0,1-1.246-.516L4.143,16.338a1,1,0,0,0-.482-.482L.827,14.529a1,1,0,0,1-.516-1.246L1.377,10.34a1,1,0,0,0,0-.681L.311,6.717A1,1,0,0,1,.827,5.471L3.662,4.143a1,1,0,0,0,.482-.482L5.471.827A1,1,0,0,1,6.717.311L9.66,1.377a1,1,0,0,0,.681,0Z"/><path class="d" d="M 6.583454132080078 1.751729965209961 L 5.411041259765625 4.255370140075684 C 5.173351287841797 4.762929916381836 4.762930870056152 5.17335033416748 4.25536060333252 5.411040306091309 L 1.751733779907227 6.583451271057129 L 2.69304084777832 9.182809829711914 C 2.883880615234375 9.709779739379883 2.883880615234375 10.29022026062012 2.693050384521484 10.81717967987061 L 1.751731872558594 13.41654682159424 L 4.25537109375 14.58896064758301 C 4.762930870056152 14.82665061950684 5.173351287841797 15.23707008361816 5.411041259765625 15.7446403503418 L 6.583452224731445 18.24826431274414 L 9.182750701904297 17.30698013305664 C 9.708281517028809 17.11664390563965 10.29175090789795 17.11666679382324 10.81718063354492 17.30694961547852 L 13.41654586791992 18.24827194213867 L 14.58896064758301 15.74462985992432 C 14.82665061950684 15.23707008361816 15.23707103729248 14.82665061950684 15.7446403503418 14.58896064758301 L 18.24827575683594 13.41654586791992 L 17.30695152282715 10.81717967987061 C 17.11612129211426 10.29020023345947 17.11612129211426 9.709779739379883 17.30695152282715 9.182820320129395 L 18.24827003479004 6.583453178405762 L 15.74463081359863 5.411040306091309 C 15.23707103729248 5.17335033416748 14.82665061950684 4.762929916381836 14.58896064758301 4.255359649658203 L 13.41654586791992 1.751733779907227 L 10.81713104248047 2.693059921264648 C 10.29161071777344 2.883359909057617 9.708440780639648 2.883369445800781 9.182821273803711 2.693050384521484 L 6.583454132080078 1.751729965209961 M 6.376308441162109 0.2510471343994141 C 6.48957633972168 0.2510395050048828 6.604513168334961 0.2703876495361328 6.716630935668945 0.3109893798828125 L 9.659510612487793 1.376699447631836 C 9.879511833190918 1.456369400024414 10.12049007415771 1.456369400024414 10.34049129486084 1.376699447631836 L 13.28336143493652 0.3109893798828125 C 13.7697114944458 0.1348628997802734 14.31011009216309 0.3587112426757812 14.52948093414307 0.8271503448486328 L 15.85683059692383 3.661640167236328 C 15.9560604095459 3.873540878295898 16.12646102905273 4.043939590454102 16.3383617401123 4.143170356750488 L 19.1728515625 5.47052001953125 C 19.64129066467285 5.689889907836914 19.86513137817383 6.230290412902832 19.68901062011719 6.716640472412109 L 18.62330055236816 9.659509658813477 C 18.54363059997559 9.879509925842285 18.54363059997559 10.12049007415771 18.62330055236816 10.34049987792969 L 19.68901062011719 13.28335952758789 C 19.86513137817383 13.76972007751465 19.64129066467285 14.31011009216309 19.1728515625 14.52947998046875 L 16.3383617401123 15.85683059692383 C 16.12646102905273 15.9560604095459 15.9560604095459 16.12646102905273 15.85683059692383 16.33835983276367 L 14.52948093414307 19.17284965515137 C 14.31011009216309 19.64129066467285 13.76970863342285 19.8651294708252 13.28336143493652 19.68901062011719 L 10.34049129486084 18.62330055236816 C 10.1204891204834 18.54362869262695 9.879508972167969 18.54363059997559 9.659501075744629 18.62330055236816 L 6.716630935668945 19.68901062011719 C 6.230282783508301 19.86513137817383 5.689881324768066 19.64128875732422 5.470520973205566 19.17284965515137 L 4.143171310424805 16.33835983276367 C 4.043940544128418 16.12646102905273 3.873540878295898 15.9560604095459 3.661640167236328 15.85683059692383 L 0.8271503448486328 14.52947998046875 C 0.3587017059326172 14.31011009216309 0.1348705291748047 13.76971054077148 0.3109912872314453 13.28335952758789 L 1.376701354980469 10.34049034118652 C 1.456371307373047 10.12049007415771 1.456371307373047 9.879509925842285 1.376701354980469 9.659509658813477 L 0.3109912872314453 6.716640472412109 C 0.1348705291748047 6.230290412902832 0.3587112426757812 5.689889907836914 0.8271503448486328 5.47052001953125 L 3.661640167236328 4.143170356750488 C 3.873540878295898 4.043939590454102 4.043940544128418 3.873540878295898 4.143171310424805 3.661640167236328 L 5.470520973205566 0.8271503448486328 C 5.639311790466309 0.4666996002197266 5.998239517211914 0.2510662078857422 6.376308441162109 0.2510471343994141 Z"/></g><path class="b" d="M176,273.586a.539.539,0,0,1-.151.376l-4.687,4.85c-.156.161-.317.373-.573.108l-2.424-2.572a.57.57,0,0,1-.049-.746.5.5,0,0,1,.749-.026l1.931,2a.08.08,0,0,0,.118,0l4.229-4.379a.45.45,0,0,1,.453-.132A.544.544,0,0,1,176,273.586Z" transform="translate(1538.004 -136.046)"/></g></svg>