<svg xmlns="http://www.w3.org/2000/svg" xmlns:xlink="http://www.w3.org/1999/xlink" width="40" height="40" viewBox="0 0 40 40"><defs><style>.a{fill:none;}.b{fill:#defff3;}.c{fill:#138a5d;stroke:#4936DF;stroke-miterlimit:10;stroke-width:0.5px;}.d{clip-path:url(#a);}.e{fill:#fff;}</style><clipPath id="a"><path class="a" d="M0,0H5.917V8.876H0Z"/></clipPath></defs><g transform="translate(-25 -282)"><rect class="b" width="40" height="40" rx="16" transform="translate(25 282)"/><rect class="c" width="25.641" height="20.71" rx="5" transform="translate(32.18 291.231)"/><g transform="translate(47.959 300.106)"><path class="a" d="M0,0H5.917V8.876H0Z"/><g class="d"><path class="e" d="M1.884,5.195H.3a.322.322,0,0,1-.277-.44L1.6.209A.3.3,0,0,1,1.874,0H4.536A.323.323,0,0,1,4.81.447L3.891,2.922H5.621a.329.329,0,0,1,.222.539L1.6,8.764a.3.3,0,0,1-.508-.3Z"/></g></g><rect class="e" width="8.876" height="1.972" transform="translate(37.111 297.148)"/><rect class="e" width="8.876" height="1.972" transform="translate(37.111 300.106)"/></g></svg>