<svg xmlns="http://www.w3.org/2000/svg" xmlns:xlink="http://www.w3.org/1999/xlink" width="40" height="40" viewBox="0 0 40 40"><defs><style>.a{fill:#fff;}.b{fill:#138a5d;}.c{clip-path:url(#a);}</style><clipPath id="a"><rect class="a" width="20" height="20" transform="translate(299 299)"/></clipPath></defs><g transform="translate(-313 -286)"><g transform="translate(0 -5)"><circle class="b" cx="20" cy="20" r="20" transform="translate(313 291)"/><g class="c" transform="translate(24 2)"><path class="a" d="M149,109.5l1.67,3.371L149,114.528l-1.67-1.656Zm0-14.973a6.517,6.517,0,0,1,4.069,11.657l-.035-.018A8.919,8.919,0,0,1,158,114v.147h-5.731v0l-.037,0a.772.772,0,0,1-.772-.71l0-.058a.765.765,0,0,1,.24-.556.778.778,0,0,1,.571-.211H156.2a7.338,7.338,0,0,0-4.954-5.421,6.661,6.661,0,0,1-4.493,0l-.01,0a7.339,7.339,0,0,0-4.944,5.418h3.946a.769.769,0,0,1,0,1.533v0H140a8.918,8.918,0,0,1,4.931-7.964A6.516,6.516,0,0,1,149,94.529Zm1.2,13.369-1.2,1.426-1.2-1.426,1.2.3ZM149,96.064a4.991,4.991,0,1,0,5.032,4.991A5.012,5.012,0,0,0,149,96.064Z" transform="translate(160 204.472)"/></g></g></g></svg>