<svg xmlns="http://www.w3.org/2000/svg" width="40" height="40" viewBox="0 0 40 40"><defs><style>.a{fill:#defff3;}.b{fill:#138a5d;stroke-miterlimit:10;}.c{fill:#fff;}.d,.e{stroke:none;}.e{fill:#4936DF;}</style></defs><g transform="translate(-25 -371)"><rect class="a" width="40" height="40" rx="15" transform="translate(25 371)"/><g transform="translate(-41.501 -13)"><g class="b" transform="translate(73.501 391)"><path class="d" d="M 13.00036907196045 25.75 C 5.969789028167725 25.75 0.2499990463256836 20.02970886230469 0.2499990463256836 12.99851894378662 C 0.2499990463256836 9.593479156494141 1.576309084892273 6.392108917236328 3.984599113464355 3.984138965606689 C 6.392919063568115 1.576139092445374 9.594779014587402 0.2499990463256836 13.00036907196045 0.2499990463256836 C 16.40565872192383 0.2499990463256836 19.60732841491699 1.576559066772461 22.01559829711914 3.98530912399292 C 24.42376899719238 6.393959045410156 25.75 9.595958709716797 25.75 13.00147914886475 C 25.75 16.40660858154297 24.4235897064209 19.60805892944336 22.01510810852051 22.01609992980957 C 19.60681915283203 24.4239387512207 16.40531921386719 25.75 13.00036907196045 25.75 Z"/><path class="e" d="M 13.00036907196045 0.4999980926513672 C 9.661548614501953 0.4999980926513672 6.522468566894531 1.800138473510742 4.161359786987305 4.160928726196289 C 1.800298690795898 6.521678924560547 0.4999980926513672 9.660259246826172 0.4999980926513672 12.99851894378662 C 0.4999980926513672 19.89185905456543 6.107639312744141 25.5 13.00036907196045 25.5 C 16.33854866027832 25.5 19.47727966308594 24.1999397277832 21.83834838867188 21.83929824829102 C 24.19959831237793 19.47847938537598 25.5 16.33981895446777 25.5 13.00147914886475 C 25.5 9.662729263305664 24.19975852966309 6.52349853515625 21.83880996704102 4.162069320678711 C 19.47775840759277 1.800548553466797 16.33886909484863 0.4999980926513672 13.00036907196045 0.4999980926513672 M 13.00036907196045 -1.9073486328125e-06 C 20.17959976196289 -1.9073486328125e-06 26 5.822319030761719 26 13.00147914886475 C 26 20.18053817749023 20.17818832397461 26 13.00036907196045 26 C 5.822938919067383 26 -1.9073486328125e-06 20.17692947387695 -1.9073486328125e-06 12.99851894378662 C -1.9073486328125e-06 5.820098876953125 5.820768356323242 -1.9073486328125e-06 13.00036907196045 -1.9073486328125e-06 Z"/></g><path class="c" d="M12,9.807c0-.241-.017-.48-.035-.717l0-.069q-.036-.441-.11-.877c-.008-.039-.011-.08-.019-.12q-.074-.395-.181-.783c-.016-.062-.028-.125-.047-.186q-.1-.346-.232-.684c-.031-.082-.057-.167-.089-.248-.082-.2-.178-.4-.274-.6-.047-.1-.088-.2-.138-.293-.1-.183-.208-.36-.317-.537-.061-.1-.116-.2-.181-.3-.122-.183-.258-.359-.392-.534-.045-.058-.083-.118-.129-.174l.815-.815L9.127,1.33l-.816.815A9.708,9.708,0,0,0,2.928.032,10.067,10.067,0,0,0,1.87,0l.016.525L1.678,2.144A11.991,11.991,0,0,1,6.007,4.451L0,10.459,1.541,12,7.547,5.992a12,12,0,0,1,2.307,4.33l2.135-.277c0-.08-.005-.159-.005-.24H12Z" transform="translate(80.502 410) rotate(-90)"/></g></g></svg>