<svg xmlns="http://www.w3.org/2000/svg" xmlns:xlink="http://www.w3.org/1999/xlink" width="50" height="50" viewBox="0 0 50 50"><defs><style>.a{fill:none;}.b{fill:#838b9c;}.c{clip-path:url(#a);}.d{fill:#fff;}</style><clipPath id="a"><path class="a" d="M0,0H29.682V28.6H0Z"/></clipPath></defs><circle class="b" cx="25" cy="25" r="25"/><g transform="translate(10.685 10.685)"><path class="a" d="M0,0H29.682V28.6H0Z"/><g class="c"><path class="d" d="M16.223,21.228a1.064,1.064,0,0,1-1.062-1.063V17.641H12.638a1.062,1.062,0,1,1,0-2.125h2.523V12.993a1.062,1.062,0,1,1,2.125,0v2.523H19.81a1.062,1.062,0,1,1,0,2.125H17.286v2.523A1.064,1.064,0,0,1,16.223,21.228ZM6.043,14.3a6.043,6.043,0,1,1,6.043-6.043A6.05,6.05,0,0,1,6.043,14.3Zm0-9.962A3.918,3.918,0,1,0,9.961,8.262,3.923,3.923,0,0,0,6.043,4.343Zm9.085-2.218H12.6A1.062,1.062,0,1,1,12.6,0h2.523a1.062,1.062,0,0,1,0,2.125Z" transform="translate(8.797 7.368)"/><path class="d" d="M18.143,26.4a1.061,1.061,0,0,0-1.063-1.063H5.313a3.2,3.2,0,0,1-3.188-3.187V9.071A3.2,3.2,0,0,1,5.313,5.884H7.607L8.826,2.477a.53.53,0,0,1,.5-.352H20.361a.538.538,0,0,1,.5.352l1.215,3.4h2.294a3.2,3.2,0,0,1,3.188,3.191v6.558a1.063,1.063,0,1,0,2.125,0V9.071a5.311,5.311,0,0,0-5.313-5.313h-.8l-.711-2A2.658,2.658,0,0,0,20.364,0H9.324a2.655,2.655,0,0,0-2.5,1.763l-.714,2h-.8A5.311,5.311,0,0,0,0,9.071V22.154a5.311,5.311,0,0,0,5.313,5.313H17.08A1.066,1.066,0,0,0,18.143,26.4Z" transform="translate(-0.002)"/></g></g></svg>