<svg xmlns="http://www.w3.org/2000/svg" width="12" height="12" viewBox="0 0 12 12"><defs><style>.a{fill:#fff;}</style></defs><path class="a" d="M166.045,137.933h-2.1V139.2h1.2a.617.617,0,0,1,.6.632v6.947a.617.617,0,0,1-.6.632h-8.4a.617.617,0,0,1-.6-.632v-6.947a.617.617,0,0,1,.6-.632h1.2v-1.263h-2.1a.925.925,0,0,0-.9.947v8.842a.925.925,0,0,0,.9.947h10.2a.925.925,0,0,0,.9-.947V138.88a.925.925,0,0,0-.9-.947Zm-5.078,7.579.223-.235,3.286-3.3-.848-.893-2.083,2.192v-6.134a.462.462,0,0,0-.45-.474h-.3a.463.463,0,0,0-.45.474v5.865l-1.822-1.918-.878.924,3.322,3.5Z" transform="translate(-154.945 -136.669)"/></svg>