<svg t="1696775118839" class="icon" viewBox="0 0 1024 1024" version="1.1" xmlns="http://www.w3.org/2000/svg" p-id="1462"
     width="200" height="200">
    <path d="M969.28 608.256a35.072 35.072 0 0 0-35.008 35.136v229.12H89.792v-229.12a35.072 35.072 0 1 0-70.144 0v264.256c0 19.264 15.616 35.008 35.008 35.008h914.624a35.136 35.136 0 0 0 35.136-35.008v-264.256a35.2 35.2 0 0 0-35.136-35.136z"
          fill="#231815" p-id="1463"></path>
    <path d="M484.864 697.024a35.072 35.072 0 0 0 53.312-0.128l152.576-179.392c12.48-14.656 10.752-36.864-3.904-49.344s-36.864-10.752-49.472 4.032L546.56 579.136V116.48a35.008 35.008 0 1 0-70.08 0v462.656L383.744 469.952a35.072 35.072 0 0 0-53.312 45.44l154.432 181.632z"
          fill="#231815" p-id="1464"></path>
</svg>
