<svg xmlns="http://www.w3.org/2000/svg" xmlns:xlink="http://www.w3.org/1999/xlink" width="20" height="20" viewBox="0 0 20 20"><defs><style>.a{fill:#fff;stroke:#707070;}.b{clip-path:url(#a);}.c{fill:#838b9c;}</style><clipPath id="a"><rect class="a" width="20" height="20" transform="translate(1699 387)"/></clipPath></defs><g class="b" transform="translate(-1699 -387)"><g transform="translate(56 -9.644)"><path class="c" d="M16.457,4A.772.772,0,0,1,18,4V17.25A2.79,2.79,0,0,1,15.171,20H2.829A2.79,2.79,0,0,1,0,17.25V2.75A2.79,2.79,0,0,1,2.829,0h14.4A.761.761,0,0,1,18,.75a.761.761,0,0,1-.771.75H2.829a1.305,1.305,0,0,0-.909.366,1.233,1.233,0,0,0-.377.884v14.5a1.233,1.233,0,0,0,.377.884,1.3,1.3,0,0,0,.909.366H15.171a1.3,1.3,0,0,0,.909-.366,1.233,1.233,0,0,0,.377-.884Z" transform="translate(1644 396.644)"/><path class="c" d="M.75,1.5A.75.75,0,1,1,.75,0H8.756a.75.75,0,1,1,0,1.5Z" transform="translate(1648.003 403.394)"/><path class="c" d="M.75,1.5A.75.75,0,1,1,.75,0h5a.75.75,0,1,1,0,1.5Z" transform="translate(1648.003 407.394)"/></g></g></svg>