<svg xmlns="http://www.w3.org/2000/svg" width="16" height="16" viewBox="0 0 16 16"><defs><style>.a{fill:#4936DF;}</style></defs><g transform="translate(0 0)"><path class="a" d="M10.546,11.364a.807.807,0,0,0,.818-.807V.807A.807.807,0,0,0,10.546,0H.807A.807.807,0,0,0,0,.807v9.751a.807.807,0,0,0,.807.807h9.739Z" transform="translate(0 0)"/><path class="a" d="M303.115,292.569h-2.591v7.057a.9.9,0,0,1-.9.9h-7.057v2.6a.807.807,0,0,0,.818.807h9.739a.807.807,0,0,0,.807-.807v-9.751a.807.807,0,0,0-.818-.807Z" transform="translate(-287.933 -287.934)"/></g></svg>