<svg xmlns="http://www.w3.org/2000/svg" width="20" height="18" viewBox="0 0 20 18"><defs><style>.a,.e{fill:none;}.a{stroke:#838b9c;stroke-width:1.3px;}.b,.c{fill:#838b9c;}.b{stroke:rgba(0,0,0,0);stroke-miterlimit:10;}.d{stroke:none;}</style></defs><g transform="translate(-1695 -184)"><g class="a" transform="translate(1695 184)"><rect class="d" width="20" height="18" rx="2"/><rect class="e" x="0.65" y="0.65" width="18.7" height="16.7" rx="1.35"/></g><g transform="translate(-1 0.485)"><path class="b" d="M-1206.572-480.395h-5a1.437,1.437,0,0,1-1.429-1.442v-.361a1.775,1.775,0,0,1,1.786-1.8h4.286a1.775,1.775,0,0,1,1.786,1.8v.361A1.437,1.437,0,0,1-1206.572-480.395Zm-5.041-2.642c-.253,0-.423.337-.423.839v.839h5.928v-.839c0-.5-.17-.839-.423-.839Z" transform="translate(2911.857 677.583)"/><path class="c" d="M.714,0H4.286A.678.678,0,0,1,5,.721a.678.678,0,0,1-.714.721H.714A.678.678,0,0,1,0,.721.678.678,0,0,1,.714,0Z" transform="translate(1708.143 189.978)"/><path class="c" d="M.714,0H4.286A.678.678,0,0,1,5,.721a.678.678,0,0,1-.714.721H.714A.678.678,0,0,1,0,.721.678.678,0,0,1,.714,0Z" transform="translate(1708.143 193.583)"/><path class="b" d="M-1210.5-478.953a2.546,2.546,0,0,1-2.5-2.524v-1.081a1.438,1.438,0,0,1,1.429-1.443h2.142a1.438,1.438,0,0,1,1.429,1.443v1.081A2.546,2.546,0,0,1-1210.5-478.953Zm-1.308-3.862v1.336a1.357,1.357,0,0,0,1.308,1.336,1.357,1.357,0,0,0,1.308-1.336v-1.336Z" transform="translate(2913.286 671.815)"/></g></g></svg>