<svg xmlns="http://www.w3.org/2000/svg" width="40" height="40" viewBox="0 0 40 40"><defs><style>.a{fill:#defff3;}.b{fill:none;}.c{fill:#138a5d;stroke-miterlimit:10;}.d{fill:#fff;}.e,.f{stroke:none;}.f{fill:#4936DF;}</style></defs><g transform="translate(-216 -371)"><rect class="a" width="40" height="40" rx="15" transform="translate(216 371)"/><path class="b" d="M0,0H25.641V23.81H0Z" transform="translate(223.18 379.205)"/><g class="c" transform="translate(223.18 379.205)"><path class="e" d="M 16.87705993652344 23.55911827087402 C 14.03470039367676 23.55911827087402 11.03025054931641 23.44389724731445 8.288710594177246 22.06689834594727 C 6.642590522766113 21.24149894714355 4.876720905303955 19.97815895080566 3.443740606307983 18.60073852539062 C 2.296500682830811 17.49798774719238 0.8360806703567505 15.81534767150879 0.3936006724834442 14.06163787841797 C 0.170440673828125 13.17839813232422 0.2088206708431244 12.51082801818848 0.5045906901359558 12.13103771209717 C 0.7420806884765625 11.82607841491699 1.100600719451904 11.76205825805664 1.359530687332153 11.76205825805664 C 1.77694308757782 11.76205825805664 2.167505741119385 11.92703819274902 2.354484796524048 12.09697341918945 L 2.377620697021484 12.12086772918701 C 2.439360618591309 12.18310832977295 2.524460554122925 12.27248764038086 2.632180690765381 12.38563823699951 C 3.634280681610107 13.43819808959961 6.683770656585693 16.64125823974609 10.21672058105469 17.97468757629395 C 12.60007095336914 18.87378883361816 15.27288055419922 19.32965850830078 18.16094017028809 19.32965850830078 C 18.4044303894043 19.32965850830078 18.65314102172852 19.32640838623047 18.90017127990723 19.32001876831055 L 19.5352611541748 19.30356788635254 L 19.05928039550781 18.88279724121094 C 16.8885498046875 16.96381759643555 16.43290138244629 15.96825790405273 16.43290138244629 15.47099781036377 C 16.43290138244629 14.48485851287842 17.1763916015625 14.33760833740234 17.61956977844238 14.33760833740234 C 17.73775100708008 14.33760833740234 17.85972023010254 14.34823799133301 17.98208045959473 14.36920833587646 C 18.19558143615723 14.40565776824951 18.90307998657227 14.78319835662842 19.7988109588623 15.2611780166626 C 20.56428146362305 15.66964817047119 21.51693153381348 16.17799758911133 22.68868064880371 16.7646484375 C 23.10921096801758 16.97580718994141 23.7491512298584 17.25411796569824 24.64479064941406 17.61534881591797 C 25.0981502532959 17.79788780212402 25.39100074768066 18.23358726501465 25.39100074768066 18.72539710998535 L 25.39100074768066 21.97169876098633 C 25.39100074768066 22.59449768066406 24.9260311126709 23.10534858703613 24.30944061279297 23.15997886657715 C 21.32542991638184 23.42447853088379 19.05244064331055 23.55859756469727 17.5536003112793 23.55859756469727 L 17.22494125366211 23.55884742736816 L 16.87705993652344 23.55911827087402 Z M 15.0506649017334 16.96405410766602 C 13.68505573272705 16.92557525634766 11.74860095977783 16.69109725952148 9.43755054473877 15.59347820281982 C 6.753147125244141 14.31757736206055 4.064999103546143 11.42394924163818 2.554332971572876 9.303302764892578 C 2.574501037597656 6.893387794494629 3.517089366912842 4.631064414978027 5.21367073059082 2.924878120422363 C 6.928900718688965 1.199958086013794 9.209120750427246 0.2499980479478836 11.63430023193359 0.2499980479478836 C 13.17436027526855 0.2499980479478836 14.69757080078125 0.6463980674743652 16.04186058044434 1.396338105201721 C 17.38630104064941 2.146358013153076 18.5271110534668 3.236217975616455 19.34096145629883 4.548088073730469 C 20.15507125854492 5.8608078956604 20.62691116333008 7.371387958526611 20.70547103881836 8.916507720947266 C 20.77983474731445 10.37900543212891 20.50053977966309 11.84668922424316 19.89657783508301 13.17739200592041 C 18.7104663848877 12.6252326965332 17.76120758056641 12.35636806488037 17.00023078918457 12.35636806488037 C 16.27970123291016 12.35636806488037 15.69063091278076 12.59620761871338 15.19935035705566 13.08959770202637 C 14.58498859405518 13.70856761932373 13.79656410217285 15.00613021850586 15.0506649017334 16.96405410766602 Z"/><path class="f" d="M 16.87705993652344 23.30911827087402 L 17.5536003112793 23.30859756469727 C 19.04510116577148 23.30859756469727 21.31066131591797 23.17480850219727 24.28738021850586 22.91094779968262 C 24.77402114868164 22.86783790588379 25.14100074768066 22.46404838562012 25.14100074768066 21.97169876098633 L 25.14100074768066 18.72539710998535 C 25.14100074768066 18.33615875244141 24.90962982177734 17.99148750305176 24.5512809753418 17.84719848632812 C 23.64924049377441 17.48338890075684 23.00320053100586 17.20231819152832 22.57676124572754 16.98819732666016 C 21.40210151672363 16.40009880065918 20.44786071777344 15.89088821411133 19.68111038208008 15.48173809051514 C 18.88103103637695 15.0547981262207 18.12531089782715 14.65152835845947 17.93988037109375 14.6156177520752 C 17.83138084411621 14.59702777862549 17.72360992431641 14.58760833740234 17.61956977844238 14.58760833740234 C 16.68290138244629 14.58760833740234 16.68290138244629 15.25250816345215 16.68290138244629 15.47099781036377 C 16.68290138244629 15.83600807189941 17.01313972473145 16.74027824401855 19.22486114501953 18.69548797607422 L 20.17683982849121 19.53705787658691 L 18.90664100646973 19.56992721557617 C 18.65726089477539 19.57638740539551 18.40637016296387 19.57965850830078 18.16094017028809 19.57965850830078 C 15.24263095855713 19.57965850830078 12.54013061523438 19.11837768554688 10.12844085693359 18.20858764648438 C 6.542080879211426 16.85498809814453 3.462950706481934 13.62080764770508 2.451120615005493 12.55801773071289 C 2.344380617141724 12.44590759277344 2.260070562362671 12.3573579788208 2.200130701065063 12.29692840576172 L 2.178217887878418 12.27456665039062 C 2.029526472091675 12.14368915557861 1.70458459854126 12.01205825805664 1.359530687332153 12.01205825805664 C 1.156330704689026 12.01205825805664 0.8772806525230408 12.05934810638428 0.7018306851387024 12.28464794158936 C 0.4587006866931915 12.596848487854 0.4353106617927551 13.20615768432617 0.6360106468200684 14.00047779083252 C 1.350110650062561 16.83075714111328 5.144660472869873 20.21073722839355 8.400920867919922 21.8434886932373 C 11.09360027313232 23.19594764709473 14.06468105316162 23.30911827087402 16.87705993652344 23.30911827087402 M 14.60487365722656 16.69434356689453 C 13.57223796844482 14.73153114318848 14.51599788665771 13.42319011688232 15.02219104766846 12.91319847106934 C 15.5627908706665 12.37028789520264 16.20981025695801 12.10636806488037 17.00023078918457 12.10636806488037 C 17.74668502807617 12.10636806488037 18.65587997436523 12.34837913513184 19.76918029785156 12.84462642669678 C 20.28715705871582 11.61194610595703 20.52388191223145 10.26831340789795 20.45580101013184 8.929198265075684 C 20.37938117980957 7.426167964935303 19.92040061950684 5.95675802230835 19.12852096557617 4.679878234863281 C 18.33699035644531 3.403988122940063 17.22753143310547 2.344048023223877 15.92007064819336 1.614657998085022 C 14.6129207611084 0.8854380249977112 13.13182067871094 0.4999980330467224 11.63430023193359 0.4999980330467224 C 9.27616024017334 0.4999980330467224 7.058900833129883 1.423768043518066 5.390950679779053 3.101148128509521 C 3.759793281555176 4.741535663604736 2.845194339752197 6.910682201385498 2.805360555648804 9.224518775939941 C 4.306684494018555 11.31409931182861 6.931339263916016 14.12546539306641 9.54481029510498 15.36764812469482 C 11.56998920440674 16.32950401306152 13.30220603942871 16.61668968200684 14.60487365722656 16.69434356689453 M 16.87705993652344 23.80911827087402 C 14.34544086456299 23.80911827087402 11.0786304473877 23.74795722961426 8.17650032043457 22.29029846191406 C 5.00670051574707 20.70089721679688 0.9387006759643555 17.24399757385254 0.1512006670236588 14.12279796600342 C -0.637199342250824 11.00249862670898 1.88460099697113 11.26800155639648 2.555100679397583 11.94299793243408 L 2.555100679397583 11.94479846954346 C 3.225600719451904 12.62069797515869 6.461100578308105 16.28999710083008 10.30500030517578 17.74079895019531 C 12.86730098724365 18.7073974609375 15.73107528686523 19.15198135375977 18.89370155334473 19.07009887695312 C 17.08559989929199 17.47169876098633 16.18290138244629 16.27289772033691 16.18290138244629 15.47099781036377 C 16.18290138244629 14.27219772338867 17.1575984954834 13.97429656982422 18.02430152893066 14.12279796600342 C 18.46710014343262 14.19839763641357 20.07000160217285 15.17399787902832 22.80060005187988 16.54109764099121 C 23.22540092468262 16.75439834594727 23.87250137329102 17.03429794311523 24.73830032348633 17.38349723815918 C 25.28370094299316 17.60309791564941 25.64100074768066 18.13409805297852 25.64100074768066 18.72539710998535 L 25.64100074768066 21.97169876098633 C 25.64100074768066 22.7195987701416 25.07310104370117 23.34329795837402 24.33150100708008 23.40899848937988 C 21.33629989624023 23.67449760437012 19.07730102539062 23.80859756469727 17.5536003112793 23.80859756469727 C 17.33485984802246 23.80859756469727 17.1089916229248 23.80911827087402 16.87705993652344 23.80911827087402 Z M 15.53400039672852 17.2205982208252 C 13.99230098724365 17.2205982208252 11.88090038299561 17.03069877624512 9.330300331115723 15.81929779052734 C 6.779700756072998 14.60699844360352 4.052700519561768 11.8583984375 2.304000616073608 9.382497787475586 C 2.304000616073608 6.893998146057129 3.286800622940063 4.508098125457764 5.03640079498291 2.748598098754883 C 6.786900520324707 0.9881980419158936 9.159300804138184 -1.952514594449895e-06 11.63430023193359 -1.952514594449895e-06 C 14.85798168182373 -0.0009025787003338337 17.84880065917969 1.668598532676697 19.55340003967285 4.416297912597656 C 21.25800132751465 7.164897918701172 21.4326000213623 10.60289764404297 20.01600074768066 13.51079845428467 C 17.44919776916504 12.26969623565674 16.2161979675293 12.42269897460938 15.37650108337402 13.26599788665771 C 14.53680038452148 14.11199760437012 14.1894006729126 15.43409824371338 15.53400039672852 17.2205982208252 Z"/></g><g transform="translate(231.192 382.41)"><path class="d" d="M4.96,3.816H1.908a.36.36,0,0,1-.382-.382.361.361,0,0,1,.382-.382h4.2V1.526H4.2V0H2.671V1.526H1.908A1.889,1.889,0,0,0,0,3.434,1.889,1.889,0,0,0,1.908,5.342H4.96a.382.382,0,0,1,0,.763H.763V7.631H2.671V9.158H4.2V7.631H4.96a1.908,1.908,0,0,0,0-3.816Z"/></g></g></svg>