<svg xmlns="http://www.w3.org/2000/svg" width="22" height="22" viewBox="0 0 22 22"><defs><style>.a{fill:#838b9c;}.b{fill:#fff;stroke:#838b9c;stroke-width:1.4px;}.c{stroke:none;}.d{fill:none;}</style></defs><g transform="translate(-72 -4319)"><path class="a" d="M52.657,43.024a1.6,1.6,0,0,1,2.019,0l9.373,7.562a1.678,1.678,0,0,1,.265,2.328,1.623,1.623,0,0,1-.886.581l-.087.019v8.473a2.663,2.663,0,0,1-2.4,2.669l-.111.009-.116,0H46.621A2.656,2.656,0,0,1,43.993,62.1l0-.118V53.514l-.057-.011a1.65,1.65,0,0,1-1.264-1.523l0-.094a1.67,1.67,0,0,1,.617-1.3ZM53.752,44.2a.135.135,0,0,0-.17,0l-9.363,7.575a.142.142,0,0,0-.052.11.139.139,0,0,0,.138.141h.441a.751.751,0,0,1,.744.76v9.2l0,.079a1.151,1.151,0,0,0,1.138,1.1H60.686l.078,0A1.154,1.154,0,0,0,61.844,62V52.783a.752.752,0,0,1,.744-.76h.441a.138.138,0,0,0,.108-.053.143.143,0,0,0-.022-.2Z" transform="translate(29.333 4276.333)"/><g class="b" transform="translate(80 4333)"><path class="c" d="M1,0H5A1,1,0,0,1,6,1V8A0,0,0,0,1,6,8H0A0,0,0,0,1,0,8V1A1,1,0,0,1,1,0Z"/><path class="d" d="M1,.7H5a.3.3,0,0,1,.3.3V7.3a0,0,0,0,1,0,0H.7a0,0,0,0,1,0,0V1A.3.3,0,0,1,1,.7Z"/></g></g></svg>