<svg xmlns="http://www.w3.org/2000/svg" width="132" height="110" viewBox="0 0 132 110"><defs><style>.a{fill:#3cbc8c;}.b{fill:#138a5d;}.c{fill:#3e3a39;}.d{fill:#fff;}</style></defs><g transform="translate(-118 -183.799)"><g transform="translate(118 183.799)"><path class="a" d="M699.894,101.588a4.494,4.494,0,1,1,4.494-4.494A4.5,4.5,0,0,1,699.894,101.588Zm0-6.785a2.291,2.291,0,1,0,2.291,2.291A2.293,2.293,0,0,0,699.894,94.8Z" transform="translate(-602.367 -88.816)"/><path class="a" d="M193.366,185.112h-1.96v-1.966a.943.943,0,1,0-1.887,0v1.966h-1.975a.942.942,0,0,0-.943.946.951.951,0,0,0,.943.946h1.96v1.966a.943.943,0,1,0,1.887,0V187h1.961a.942.942,0,0,0,.943-.946.929.929,0,0,0-.929-.946Zm99.16,19.129h-1.961v-1.966a.943.943,0,1,0-1.887,0v1.966h-1.961a.942.942,0,0,0-.943.946.951.951,0,0,0,.943.946h1.946V208.1a.943.943,0,1,0,1.887,0v-1.966h1.96a.946.946,0,0,0,.015-1.892Z" transform="translate(-168.55 -165.17)"/><path class="b" d="M72.394,502.1H70.1v-2.291a1.109,1.109,0,0,0-2.217,0V502.1H65.609a1.109,1.109,0,0,0,0,2.217H67.9v2.291a1.109,1.109,0,1,0,2.217,0v-2.291h2.291a1.107,1.107,0,0,0,1.109-1.109A1.12,1.12,0,0,0,72.394,502.1Z" transform="translate(-64.5 -434.876)"/><path class="b" d="M324.356,124.656m-1.656,0A1.656,1.656,0,1,0,324.356,123,1.656,1.656,0,0,0,322.7,124.656Z" transform="translate(-284.621 -114.721)"/><path class="b" d="M822.917,180.617m-2.217,0a2.217,2.217,0,1,0,2.217-2.217A2.218,2.218,0,0,0,820.7,180.617Z" transform="translate(-709.219 -161.932)"/><path class="a" d="M67.717,121.417m-2.217,0a2.217,2.217,0,1,0,2.217-2.217A2.217,2.217,0,0,0,65.5,121.417Z" transform="translate(-65.352 -111.483)"/><path class="b" d="M91.494,315.888a4.494,4.494,0,1,1,4.494-4.494A4.5,4.5,0,0,1,91.494,315.888Zm0-6.785a2.291,2.291,0,1,0,2.291,2.291A2.293,2.293,0,0,0,91.494,309.1Z" transform="translate(-83.674 -271.433)"/><path class="a" d="M461.813,68.67a.625.625,0,0,0-.872,0,.607.607,0,0,0,0,.857l1.966,1.966a.607.607,0,0,0,.857,0,.625.625,0,0,0,0-.872ZM467,73.859a.607.607,0,0,0-.857,0,.625.625,0,0,0,0,.872l1.966,1.966a.606.606,0,0,0,1.035-.429.568.568,0,0,0-.177-.429L467,73.859Zm-.443-2.188a.592.592,0,0,0,.429-.177l1.966-1.966a.592.592,0,0,0,.177-.429.569.569,0,0,0-.177-.429.625.625,0,0,0-.872,0l-1.966,1.966a.625.625,0,0,0,0,.872A.713.713,0,0,0,466.558,71.671Zm-3.651,2.188-1.966,1.966a.606.606,0,0,0,.857.857l1.966-1.966a.606.606,0,1,0-.857-.857Zm.384-1.183a.609.609,0,0,0-.606-.606h-2.779a.606.606,0,0,0,0,1.212h2.779A.609.609,0,0,0,463.291,72.677Zm6.726-.621h-2.779a.606.606,0,1,0,0,1.212h2.779a.606.606,0,1,0,0-1.212ZM464.947,67a.609.609,0,0,0-.606.606V70.4a.606.606,0,0,0,1.212,0V67.621A.6.6,0,0,0,464.947,67Zm0,7.347a.609.609,0,0,0-.606.606v2.779a.606.606,0,0,0,1.212,0V74.953A.591.591,0,0,0,464.947,74.347Z" transform="translate(-401.085 -67)"/><path class="b" d="M885.413,467.356a.625.625,0,0,0-.872,0,.607.607,0,0,0,0,.858l1.966,1.966a.607.607,0,0,0,.857,0,.625.625,0,0,0,0-.872Zm5.189,5.2a.607.607,0,0,0-.857,0,.624.624,0,0,0,0,.872l1.966,1.966a.606.606,0,0,0,1.035-.429.569.569,0,0,0-.177-.429Zm-.444-2.188a.592.592,0,0,0,.429-.177l1.966-1.966a.592.592,0,0,0,.177-.429.569.569,0,0,0-.177-.429.625.625,0,0,0-.872,0l-1.966,1.966a.625.625,0,0,0,0,.872A.713.713,0,0,0,890.158,470.371Zm-3.651,2.188-1.966,1.966a.606.606,0,0,0,.857.857l1.966-1.966a.606.606,0,1,0-.857-.857Zm.384-1.183a.609.609,0,0,0-.606-.606h-2.779a.609.609,0,0,0-.606.606.619.619,0,0,0,.606.606h2.779A.609.609,0,0,0,886.891,471.377Zm6.726-.621h-2.779a.609.609,0,0,0-.606.606.619.619,0,0,0,.606.606h2.779a.609.609,0,0,0,.606-.606A.619.619,0,0,0,893.618,470.756Zm-5.07-5.056a.609.609,0,0,0-.606.606v2.779a.609.609,0,0,0,.606.606.619.619,0,0,0,.606-.606v-2.779A.6.6,0,0,0,888.547,465.7Zm0,7.347a.609.609,0,0,0-.606.606v2.779a.609.609,0,0,0,.606.606.619.619,0,0,0,.606-.606v-2.779A.591.591,0,0,0,888.547,473.047Z" transform="translate(-762.224 -406.755)"/></g><g transform="translate(127.569 219.171)"><path class="a" d="M71.855,171.8h70.028c4.777,0,8.694,3.548,8.755,7.9l-43.754,22.332-43.744-22.3C63.181,175.357,67.067,171.8,71.855,171.8ZM63.14,183.484l-.04,44.272c0,4.395,3.937,7.99,8.755,7.99h70.028c4.818,0,8.755-3.595,8.755-7.99V183.465l-42.721,21.287a2.344,2.344,0,0,1-2.1,0Z" transform="translate(-46.509 -165.767)"/><path class="b" d="M-2636.726-906.734s-3.509,15.111-8.507,20.724-6.6,2.674-11.369,8.683-62.44,12.707-64.432,8.494,2.315,8.29,2.315,8.29h89.133V-910.23Z" transform="translate(2732.733 928.495)"/><path class="c" d="M7.785,70.013A7.78,7.78,0,0,1,0,62.263V20.417a1.669,1.669,0,0,1,3.337,0V62.279a4.451,4.451,0,0,0,4.448,4.429H47.012a1.653,1.653,0,1,1,0,3.3ZM91.532,67.95V7.75a4.452,4.452,0,0,0-4.448-4.429H17.671a1.661,1.661,0,1,1,0-3.321H87.1a7.781,7.781,0,0,1,7.786,7.75V67.965A1.686,1.686,0,0,1,93.2,69.61,1.663,1.663,0,0,1,91.532,67.95ZM.028,12.8V7.753A7.781,7.781,0,0,1,7.814,0h3.367a1.661,1.661,0,1,1,0,3.321H7.8A4.452,4.452,0,0,0,3.349,7.753V12.8A1.641,1.641,0,0,1,1.7,14.46,1.665,1.665,0,0,1,.028,12.8Z" transform="translate(10.407)"/><path class="c" d="M235.647,937.911h-3.936a1.656,1.656,0,0,1,0-3.311h3.936a1.656,1.656,0,0,1,0,3.311Zm-105.354,0h-5.042a1.656,1.656,0,0,1,0-3.311h5.042a1.656,1.656,0,0,1,0,3.311Zm96.523,0H135.852a1.656,1.656,0,0,1,0-3.311h90.965a1.656,1.656,0,0,1,0,3.311Z" transform="translate(-123.6 -867.935)"/><path class="d" d="M281.961,455.056a1.661,1.661,0,0,1-1.661-1.661v-7.434a1.661,1.661,0,1,1,3.322,0v7.434A1.661,1.661,0,0,1,281.961,455.056Z" transform="translate(-258.506 -411.947)"/><path class="d" d="M281.961,319.656a1.661,1.661,0,0,1-1.661-1.661V305.183a5.292,5.292,0,0,1,5.283-5.283H289.6a1.661,1.661,0,0,1,0,3.322h-4.018a1.961,1.961,0,0,0-1.961,1.961v12.812A1.661,1.661,0,0,1,281.961,319.656Z" transform="translate(-258.506 -290.358)"/><path class="d" d="M83.572,103.144A19.572,19.572,0,1,0,64,83.572,19.572,19.572,0,0,0,83.572,103.144ZM74.228,85.2A1.4,1.4,0,1,1,76.2,83.228l4.943,4.943L92.024,77.3A1.4,1.4,0,0,1,94,79.275L82.138,91.138a1.4,1.4,0,0,1-1.977,0Z" transform="translate(2.336 -30.668)"/><path class="c" d="M425.59,432.981a23.79,23.79,0,1,1,23.79-23.79A23.819,23.819,0,0,1,425.59,432.981Zm0-42.492a18.7,18.7,0,1,0,18.7,18.7A18.724,18.724,0,0,0,425.59,390.488Z" transform="translate(-341.334 -358.353)"/></g></g></svg>