<svg xmlns="http://www.w3.org/2000/svg" width="139" height="110" viewBox="0 0 139 110"><defs><style>.a{fill:#3cbc8c;}.b{fill:#138a5d;}.c{fill:#3e3a39;}.d{fill:#fff;}.e{fill:#fcee21;}</style></defs><g transform="translate(-65.3 -100)"><path class="a" d="M120.916,234.545h-1.91v-1.912a.932.932,0,1,0-1.864,0v1.912h-1.91a.933.933,0,0,0,0,1.866h1.91v1.912a.932.932,0,1,0,1.864,0v-1.912h1.91a.935.935,0,0,0,.932-.933A.945.945,0,0,0,120.916,234.545ZM244.75,267.632h-1.91V265.72a.932.932,0,1,0-1.864,0v1.912h-1.91a.933.933,0,0,0,0,1.866h1.91v1.9a.932.932,0,1,0,1.864,0v-1.912h1.91a.935.935,0,0,0,.932-.933A.922.922,0,0,0,244.75,267.632Z" transform="translate(-41.381 -111.27)"/><path class="b" d="M808.765,164.7h-2.223v-2.223a1.073,1.073,0,0,0-2.146,0V164.7h-2.223a1.073,1.073,0,1,0,0,2.146H804.4v2.223a1.073,1.073,0,0,0,2.146,0v-2.223h2.223a1.073,1.073,0,0,0,0-2.146Z" transform="translate(-621.553 -51.853)"/><path class="b" d="M270.817,218.917m-1.617,0a1.617,1.617,0,1,0,1.617-1.617A1.617,1.617,0,0,0,269.2,218.917Z" transform="translate(-172.234 -99.062)"/><path class="b" d="M910.461,313.961m-2.161,0a2.161,2.161,0,1,0,2.161-2.161A2.161,2.161,0,0,0,908.3,313.961Z" transform="translate(-712.085 -178.918)"/><path class="a" d="M701.261,216.461m-2.161,0a2.161,2.161,0,1,0,2.161-2.161A2.161,2.161,0,0,0,699.1,216.461Z" transform="translate(-535.37 -96.555)"/><path class="b" d="M69.685,417.669a4.385,4.385,0,1,1,4.385-4.385A4.39,4.39,0,0,1,69.685,417.669Zm0-6.624a2.223,2.223,0,1,0,2.223,2.223A2.223,2.223,0,0,0,69.685,411.046Z" transform="translate(0 -260.947)"/><path class="b" d="M519.785,186.969a4.385,4.385,0,1,1,4.385-4.385A4.39,4.39,0,0,1,519.785,186.969Zm0-6.608a2.223,2.223,0,1,0,2.223,2.223A2.223,2.223,0,0,0,519.785,180.361Z" transform="translate(-380.201 -66.041)"/><path class="a" d="M368.141,101.617a.591.591,0,0,0-.84,0,.6.6,0,0,0,0,.84l1.912,1.912a.6.6,0,0,0,.84,0,.591.591,0,0,0,0-.84Zm5.053,5.053a.6.6,0,0,0-.84,0,.591.591,0,0,0,0,.84l1.912,1.912a.594.594,0,0,0,.84-.84Zm-.42-2.13a.6.6,0,0,0,.42-.171l1.912-1.912a.6.6,0,0,0,0-.84.591.591,0,0,0-.84,0l-1.912,1.912a.591.591,0,0,0,0,.84A.6.6,0,0,0,372.775,104.54Zm-3.561,2.13-1.912,1.912a.594.594,0,0,0,.84.84l1.912-1.912a.594.594,0,0,0-.84-.84Zm.373-1.151a.591.591,0,0,0-.591-.591h-2.705a.591.591,0,0,0,0,1.182H369A.591.591,0,0,0,369.587,105.52Zm6.546-.591h-2.705a.591.591,0,0,0,0,1.182h2.705a.591.591,0,0,0,0-1.182ZM371.2,100a.591.591,0,0,0-.591.591V103.3a.591.591,0,0,0,1.182,0v-2.705A.581.581,0,0,0,371.2,100Zm0,7.137a.591.591,0,0,0-.591.591v2.705a.591.591,0,1,0,1.182,0v-2.705A.59.59,0,0,0,371.2,107.137Z" transform="translate(-253.75)"/><path class="a" d="M308,392.675h-39.85a6.546,6.546,0,0,1-6.546-6.546V330.746a6.546,6.546,0,0,1,6.546-6.546h78.566a6.546,6.546,0,0,1,6.546,6.546V373.97" transform="translate(-165.937 -189.501)"/><path class="b" d="M525.708,341.2s-28.314,59.581-59.908,65.816h52.212l7.93-7.37Z" transform="translate(-338.387 -203.857)"/><path class="c" d="M313.143,324.933a1.626,1.626,0,0,1-1.617-1.617V294.583a5.348,5.348,0,0,0-5.349-5.349h-71.6a1.617,1.617,0,1,1,0-3.234h71.616a8.59,8.59,0,0,1,8.583,8.583v28.733a1.629,1.629,0,0,1-1.633,1.617Zm-97.426-22.545a1.626,1.626,0,0,1-1.617-1.617V294.6a8.6,8.6,0,0,1,8.583-8.583h4.929a1.617,1.617,0,1,1,0,3.234h-4.929a5.348,5.348,0,0,0-5.349,5.349v6.173A1.626,1.626,0,0,1,215.717,302.388Zm49.319,59.644H222.683a8.59,8.59,0,0,1-8.583-8.583V309.867a1.617,1.617,0,1,1,3.234,0v43.582a5.348,5.348,0,0,0,5.349,5.349h42.354a1.617,1.617,0,1,1,0,3.234Z" transform="translate(-125.822 -157.24)"/><path class="c" d="M349.457,404.334h-90.74a1.617,1.617,0,1,1,0-3.234h90.756a1.617,1.617,0,1,1-.016,3.234Zm-61.525,14.538h-25.81a1.617,1.617,0,1,1,0-3.234h25.81a1.617,1.617,0,1,1,0,3.234Zm18.891,0H295.784a1.617,1.617,0,1,1,0-3.234h11.039a1.617,1.617,0,1,1,0,3.234Z" transform="translate(-162.136 -254.365)"/><path class="d" d="M316.081,592.535v7.245a.445.445,0,0,1-.435.435h-25.81a.445.445,0,0,1-.435-.435v-7.245a.445.445,0,0,1,.435-.435h25.81A.445.445,0,0,1,316.081,592.535Z" transform="translate(-189.305 -415.707)"/><path class="c" d="M169.266,593.05H148.628A4.632,4.632,0,0,1,144,588.417v-2.1a4.619,4.619,0,0,1,4.628-4.618h20.638a4.629,4.629,0,0,1,4.628,4.618v2.115A4.629,4.629,0,0,1,169.266,593.05Zm-20.638-8.116a1.4,1.4,0,0,0-1.4,1.384v2.115a1.4,1.4,0,0,0,1.4,1.4h20.638a1.389,1.389,0,0,0,1.382-1.4v-2.1a1.386,1.386,0,0,0-1.382-1.384H148.628Zm96.032,26.821h-3.851a1.617,1.617,0,0,1,0-3.234h3.851a1.617,1.617,0,0,1,0,3.234Zm-118.922,0h-4.923a1.617,1.617,0,0,1,0-3.234h4.923a1.617,1.617,0,0,1,0,3.234Zm108.905,0H130.831a1.617,1.617,0,0,1,0-3.234H234.643a1.617,1.617,0,0,1,0,3.234Z" transform="translate(-45.519 -406.964)"/><path class="d" d="M632.622,573.622m-18.922,0A18.922,18.922,0,1,0,632.622,554.7,18.922,18.922,0,0,0,613.7,573.622Z" transform="translate(-463.291 -384.162)"/><path class="c" d="M608.021,564.941a22.421,22.421,0,1,1,22.421-22.421A22.449,22.449,0,0,1,608.021,564.941Zm0-41.607a19.187,19.187,0,1,0,19.187,19.187A19.207,19.207,0,0,0,608.021,523.334Z" transform="translate(-439.56 -354.941)"/><path class="c" d="M660.617,620.271A1.626,1.626,0,0,1,659,618.654V602.017a1.626,1.626,0,0,1,1.617-1.617h18.269a1.617,1.617,0,1,1,0,3.234H662.234v15.02A1.616,1.616,0,0,1,660.617,620.271Z" transform="translate(-501.513 -422.756)"/><path class="e" d="M698.47,634.481A61.956,61.956,0,0,0,681.6,616.6" transform="translate(-520.599 -436.437)"/><path class="c" d="M689.714,627.342a1.618,1.618,0,0,1-1.4-.809,61.09,61.09,0,0,0-16.388-17.352,1.62,1.62,0,1,1,1.85-2.659,62.885,62.885,0,0,1,17.352,18.394,1.622,1.622,0,0,1-.591,2.208A1.6,1.6,0,0,1,689.714,627.342Z" transform="translate(-511.845 -427.682)"/></g></svg>