<svg xmlns="http://www.w3.org/2000/svg" width="118" height="110" viewBox="0 0 118 110"><defs><style>.a{fill:#df163d;}.b{fill:#d50f3a;}.c{fill:#3e3a39;}.d{fill:#fcee21;}.e{fill:#fff;}</style></defs><g transform="translate(-64.5 -53.5)"><path class="a" d="M324.205,314.359V281.553a4.749,4.749,0,0,0-4.655-4.853h-62.8a4.766,4.766,0,0,0-4.654,4.853v61.937c0,4.721,2.486,8.542,8.172,8.542h50.657c7.3,0,13.263-6.241,13.263-13.871v-23.8Z" transform="translate(-162.979 -193.834)"/><path class="b" d="M283.42,341.512V279.826a5.109,5.109,0,0,0-1.15-3.226c-9.084,46.109-70.637,71.417-77.17,73.983a5.072,5.072,0,0,0,4.615,2.949h59.213C271.731,353.531,283.42,344.315,283.42,341.512Z" transform="translate(-122.169 -193.747)"/><path class="a" d="M691.955,61.011a3.755,3.755,0,1,1,3.755-3.755A3.753,3.753,0,0,1,691.955,61.011Zm0-5.659a1.9,1.9,0,1,0,1.9,1.9A1.9,1.9,0,0,0,691.955,55.351Z" transform="translate(-541.486)"/><path class="a" d="M219.059,139.633h-1.64v-1.64a.793.793,0,0,0-1.587,0v1.64h-1.64a.793.793,0,0,0,0,1.587h1.64v1.64a.793.793,0,0,0,1.587,0v-1.64h1.64a.793.793,0,0,0,0-1.587Zm83.014,15.973h-1.64v-1.64a.793.793,0,1,0-1.587,0v1.64h-1.64a.793.793,0,1,0,0,1.587h1.64v1.64a.793.793,0,1,0,1.587,0v-1.64h1.64a.793.793,0,0,0,0-1.587Z" transform="translate(-129.557 -72.632)"/><path class="b" d="M71.085,421.53h-1.9v-1.9a.926.926,0,0,0-1.851,0v1.9h-1.9a.926.926,0,0,0,0,1.851h1.9v1.9a.926.926,0,1,0,1.851,0v-1.917h1.9a.919.919,0,1,0,0-1.838Z" transform="translate(0 -316.979)"/><path class="b" d="M341.688,83.288m-1.388,0a1.388,1.388,0,1,0,1.388-1.388A1.388,1.388,0,0,0,340.3,83.288Z" transform="translate(-239.44 -24.645)"/><path class="b" d="M806.951,135.551m-1.851,0a1.851,1.851,0,1,0,1.851-1.851A1.851,1.851,0,0,0,805.1,135.551Z" transform="translate(-643.016 -69.595)"/><path class="a" d="M367.651,157.151m-1.851,0a1.851,1.851,0,1,0,1.851-1.851A1.851,1.851,0,0,0,365.8,157.151Z" transform="translate(-261.579 -88.339)"/><path class="b" d="M103.155,233.111a3.755,3.755,0,1,1,3.755-3.755A3.753,3.753,0,0,1,103.155,233.111Zm0-5.659a1.9,1.9,0,1,0,1.9,1.9A1.9,1.9,0,0,0,103.155,227.451Z" transform="translate(-30.285 -149.376)"/><path class="a" d="M478.929,106.988a.519.519,0,0,0-.727,0,.511.511,0,0,0,0,.714l1.64,1.64a.511.511,0,0,0,.714,0,.519.519,0,0,0,0-.727Zm4.337,4.337a.511.511,0,0,0-.714,0,.519.519,0,0,0,0,.727l1.64,1.64a.5.5,0,0,0,.714-.714Zm-.37-1.825a.511.511,0,0,0,.357-.145l1.64-1.64a.511.511,0,0,0,0-.714.519.519,0,0,0-.727,0l-1.64,1.64a.519.519,0,0,0,0,.727A.632.632,0,0,0,482.9,109.5Zm-3.055,1.825-1.64,1.64a.5.5,0,0,0,.714.714l1.64-1.64a.5.5,0,1,0-.714-.714Zm.317-.992a.516.516,0,0,0-.516-.516h-2.327a.516.516,0,0,0-.516.516.508.508,0,0,0,.516.516h2.327A.516.516,0,0,0,480.159,110.334Zm5.62-.516h-2.327a.516.516,0,0,0-.516.516.508.508,0,0,0,.516.516h2.327a.516.516,0,0,0,0-1.031ZM481.56,105.6a.516.516,0,0,0-.516.516v2.314a.516.516,0,0,0,1.031,0V106.1A.523.523,0,0,0,481.56,105.6Zm0,6.122a.516.516,0,0,0-.516.516v2.314a.516.516,0,0,0,1.031,0v-2.314A.534.534,0,0,0,481.56,111.722Z" transform="translate(-357.955 -45.211)"/><path class="b" d="M889.916,403.188a.519.519,0,0,0-.727,0,.511.511,0,0,0,0,.714l1.64,1.64a.511.511,0,0,0,.714,0,.519.519,0,0,0,0-.727l-1.626-1.626Zm4.337,4.337a.511.511,0,0,0-.714,0,.519.519,0,0,0,0,.727l1.64,1.64a.5.5,0,0,0,.714-.714ZM893.9,405.7a.511.511,0,0,0,.357-.145l1.64-1.64a.511.511,0,0,0,0-.714.519.519,0,0,0-.727,0l-1.64,1.64a.519.519,0,0,0,0,.727A.6.6,0,0,0,893.9,405.7Zm-3.055,1.825-1.64,1.64a.5.5,0,0,0,.714.714l1.64-1.64a.505.505,0,1,0-.714-.714Zm.317-.992a.516.516,0,0,0-.516-.516h-2.327a.516.516,0,1,0,0,1.031h2.327A.516.516,0,0,0,891.159,406.534Zm5.607-.5h-2.327a.516.516,0,0,0,0,1.031h2.327a.516.516,0,0,0,.516-.516A.508.508,0,0,0,896.765,406.031Zm-4.218-4.231a.516.516,0,0,0-.516.516v2.327a.516.516,0,0,0,1.031,0v-2.327A.525.525,0,0,0,892.547,401.8Zm0,6.135a.516.516,0,0,0-.516.516v2.314a.516.516,0,0,0,1.031,0v-2.327A.514.514,0,0,0,892.547,407.935Z" transform="translate(-714.781 -302.312)"/><path class="c" d="M217.807,838.677h-3.282a1.388,1.388,0,0,1,0-2.777h3.282a1.388,1.388,0,0,1,0,2.777Zm-101.718,0h-4.2a1.388,1.388,0,0,1,0-2.777h4.2a1.388,1.388,0,0,1,0,2.777Z" transform="translate(-39.917 -679.091)"/><path class="c" d="M265.618,838.677H176.883a1.388,1.388,0,0,1,0-2.777h88.735a1.388,1.388,0,0,1,0,2.777Z" transform="translate(-96.322 -679.091)"/><path class="c" d="M375.751,281.795a1.388,1.388,0,0,1-1.388-1.388V246.079a3.713,3.713,0,0,0-3.7-3.7H312.888a1.388,1.388,0,1,1,0-2.777h57.785a6.49,6.49,0,0,1,6.479,6.479v34.34A1.406,1.406,0,0,1,375.751,281.795Z" transform="translate(-214.554 -161.545)"/><path class="c" d="M211.188,251.586A1.388,1.388,0,0,1,209.8,250.2v-4.218a6.49,6.49,0,0,1,6.479-6.479h2.8a1.388,1.388,0,0,1,0,2.777h-2.816a3.713,3.713,0,0,0-3.7,3.7V250.2A1.369,1.369,0,0,1,211.188,251.586Z" transform="translate(-126.149 -161.442)"/><path class="c" d="M248.927,424.751H216.279a6.49,6.49,0,0,1-6.479-6.479V360.288a1.388,1.388,0,1,1,2.777,0v58a3.713,3.713,0,0,0,3.7,3.7h32.648a1.382,1.382,0,1,1,0,2.764Z" transform="translate(-126.172 -265.165)"/><path class="d" d="M343.2,493.5h40.2" transform="translate(-242.011 -381.897)"/><path class="c" d="M374.286,485.777h-40.2a1.388,1.388,0,1,1,0-2.777h40.2a1.388,1.388,0,1,1,0,2.777Z" transform="translate(-232.899 -372.785)"/><path class="d" d="M343.2,593.8h23.18" transform="translate(-241.981 -468.952)"/><path class="c" d="M357.268,585.977h-23.18a1.388,1.388,0,1,1,0-2.777h23.18a1.388,1.388,0,1,1,0,2.777Z" transform="translate(-232.869 -459.754)"/><path class="d" d="M343.2,694h14.426" transform="translate(-241.97 -555.92)"/><path class="c" d="M348.515,686.277H334.088a1.388,1.388,0,1,1,0-2.777h14.426a1.388,1.388,0,1,1,0,2.777Z" transform="translate(-232.857 -546.81)"/><path class="d" d="M338.4,381.7h46.849" transform="translate(-237.857 -284.86)"/><path class="c" d="M376.138,373.977H329.288a1.388,1.388,0,0,1,0-2.777h46.836a1.388,1.388,0,0,1,1.388,1.388A1.369,1.369,0,0,1,376.138,373.977Z" transform="translate(-228.746 -275.748)"/><path class="b" d="M753.738,787.4l5.778,5.778A3.478,3.478,0,0,1,754.6,798.1l-5.9-5.9" transform="translate(-594.074 -637.004)"/><path class="c" d="M747.967,791.5a4.841,4.841,0,0,1-3.438-1.415l-5.9-5.9a1.384,1.384,0,0,1,1.957-1.957l5.9,5.9a2.167,2.167,0,0,0,2.962,0,2.107,2.107,0,0,0,0-2.962l-5.778-5.778a1.384,1.384,0,0,1,1.957-1.957l5.778,5.779a4.853,4.853,0,0,1-3.438,8.291Z" transform="translate(-584.984 -628.001)"/><path class="e" d="M597.663,627.863m-14.863,0A14.863,14.863,0,1,0,597.663,613,14.863,14.863,0,0,0,582.8,627.863Z" transform="translate(-450.033 -485.665)"/><path class="c" d="M560.161,608.609a18.254,18.254,0,1,1,18.261-18.248A18.281,18.281,0,0,1,560.161,608.609Zm0-33.745a15.491,15.491,0,1,0,15.484,15.5A15.5,15.5,0,0,0,560.161,574.864Z" transform="translate(-414.54 -450.173)"/><path class="e" d="M281.688,453.292A1.388,1.388,0,0,1,280.3,451.9v-6.215a1.388,1.388,0,0,1,2.777,0V451.9A1.388,1.388,0,0,1,281.688,453.292Z" transform="translate(-187.35 -339.2)"/><path class="e" d="M281.688,316.416a1.388,1.388,0,0,1-1.388-1.388V304.316a4.424,4.424,0,0,1,4.416-4.417h3.359a1.388,1.388,0,0,1,0,2.777h-3.359a1.639,1.639,0,0,0-1.64,1.64v10.711A1.388,1.388,0,0,1,281.688,316.416Z" transform="translate(-187.355 -213.87)"/><path class="c" d="M2025.759,4018.2a1.073,1.073,0,0,1,0-1.518l4.7-4.7-4.7-4.7a1.073,1.073,0,0,1,1.517-1.517l4.7,4.7,4.4-4.4a1.073,1.073,0,0,1,1.518,1.517l-4.4,4.4,4.4,4.4a1.073,1.073,0,1,1-1.518,1.518l-4.4-4.4-4.7,4.7a1.073,1.073,0,0,1-1.517,0Z" transform="translate(-1884.15 -3869.979)"/></g></svg>