<svg xmlns="http://www.w3.org/2000/svg" width="110" height="110" viewBox="0 0 110 110"><defs><style>.a{fill:#3cbc8c;}.b{fill:#138a5d;}.c{fill:#3e3a39;}.d{fill:#fff;}</style></defs><g transform="translate(-257 -148)"><path class="a" d="M699.157,100.114a3.757,3.757,0,1,1,3.757-3.757A3.763,3.763,0,0,1,699.157,100.114Zm0-5.673a1.916,1.916,0,1,0,1.916,1.916A1.917,1.917,0,0,0,699.157,94.441Z" transform="translate(-360.89 58.564)"/><path class="a" d="M192.234,184.635H190.6v-1.644a.786.786,0,1,0-1.571,0v1.644h-1.645a.786.786,0,0,0-.786.791.794.794,0,0,0,.786.791h1.633v1.644a.786.786,0,1,0,1.571,0v-1.644h1.633a.786.786,0,0,0,.786-.791.776.776,0,0,0-.773-.791ZM274.8,200.627h-1.633v-1.644a.786.786,0,1,0-1.571,0v1.644h-1.633a.786.786,0,0,0-.786.791.794.794,0,0,0,.786.791h1.62v1.644a.786.786,0,1,0,1.571,0v-1.644h1.632a.791.791,0,0,0,.012-1.582Z" transform="translate(85.49 -19.963)"/><path class="b" d="M71.1,501.542H69.184v-1.916a.927.927,0,0,0-1.854,0v1.916h-1.9a.927.927,0,0,0,0,1.854h1.916v1.916a.927.927,0,1,0,1.854,0V503.4h1.916a.926.926,0,0,0,.927-.927A.936.936,0,0,0,71.1,501.542Z" transform="translate(192.5 -297.344)"/><path class="b" d="M324.084,124.384m-1.384,0A1.384,1.384,0,1,0,324.084,123,1.384,1.384,0,0,0,322.7,124.384Z" transform="translate(-33.97 31.921)"/><path class="b" d="M822.554,180.254m-1.854,0a1.854,1.854,0,1,0,1.854-1.854A1.854,1.854,0,0,0,820.7,180.254Z" transform="translate(-470.854 -16.633)"/><path class="a" d="M67.354,121.054m-1.854,0a1.854,1.854,0,1,0,1.854-1.854A1.854,1.854,0,0,0,65.5,121.054Z" transform="translate(191.624 35.251)"/><path class="b" d="M90.757,314.414a3.757,3.757,0,1,1,3.757-3.757A3.763,3.763,0,0,1,90.757,314.414Zm0-5.673a1.916,1.916,0,1,0,1.916,1.916A1.917,1.917,0,0,0,90.757,308.741Z" transform="translate(172.781 -129.249)"/><path class="a" d="M461.4,68.4a.522.522,0,0,0-.729,0,.507.507,0,0,0,0,.717l1.644,1.644a.507.507,0,0,0,.717,0,.522.522,0,0,0,0-.729Zm4.338,4.338a.507.507,0,0,0-.717,0,.522.522,0,0,0,0,.729l1.644,1.644a.507.507,0,0,0,.865-.358.475.475,0,0,0-.148-.358l-1.644-1.656Zm-.371-1.829a.5.5,0,0,0,.358-.148l1.644-1.644a.5.5,0,0,0,.148-.358.475.475,0,0,0-.148-.358.522.522,0,0,0-.729,0L465,70.04a.522.522,0,0,0,0,.729A.6.6,0,0,0,465.368,70.905Zm-3.053,1.829-1.644,1.644a.507.507,0,0,0,.717.717l1.644-1.644a.507.507,0,1,0-.717-.717Zm.321-.989a.509.509,0,0,0-.507-.507h-2.323a.507.507,0,0,0,0,1.013h2.323A.509.509,0,0,0,462.637,71.746Zm5.623-.519h-2.323a.507.507,0,1,0,0,1.013h2.323a.507.507,0,1,0,0-1.013ZM464.021,67a.509.509,0,0,0-.507.507v2.336a.507.507,0,0,0,1.013,0V67.519A.5.5,0,0,0,464.021,67Zm0,6.142a.509.509,0,0,0-.507.507v2.323a.507.507,0,0,0,1.013,0V73.649A.494.494,0,0,0,464.021,73.142Z" transform="translate(-153.802 81)"/><path class="b" d="M885,467.084a.522.522,0,0,0-.729,0,.507.507,0,0,0,0,.717l1.644,1.644a.507.507,0,0,0,.717,0,.522.522,0,0,0,0-.729Zm4.338,4.35a.507.507,0,0,0-.717,0,.522.522,0,0,0,0,.729l1.644,1.644a.507.507,0,0,0,.865-.358.476.476,0,0,0-.148-.358Zm-.371-1.829a.5.5,0,0,0,.358-.148l1.644-1.644a.5.5,0,0,0,.148-.358.475.475,0,0,0-.148-.358.522.522,0,0,0-.729,0L888.6,468.74a.522.522,0,0,0,0,.729A.6.6,0,0,0,888.968,469.605Zm-3.053,1.829-1.644,1.644a.507.507,0,0,0,.717.717l1.644-1.644a.507.507,0,1,0-.717-.717Zm.321-.989a.509.509,0,0,0-.507-.507h-2.323a.509.509,0,0,0-.507.507.517.517,0,0,0,.507.507h2.323A.509.509,0,0,0,886.237,470.446Zm5.623-.519h-2.323a.509.509,0,0,0-.507.507.517.517,0,0,0,.507.507h2.323a.509.509,0,0,0,.507-.507A.517.517,0,0,0,891.86,469.927Zm-4.239-4.227a.509.509,0,0,0-.507.507v2.323a.509.509,0,0,0,.507.507.517.517,0,0,0,.507-.507v-2.323A.5.5,0,0,0,887.621,465.7Zm0,6.142a.509.509,0,0,0-.507.507v2.323a.509.509,0,0,0,.507.507.517.517,0,0,0,.507-.507v-2.323A.494.494,0,0,0,887.621,471.842Z" transform="translate(-525.367 -268.422)"/><path class="c" d="M216.925,937.368h-3.279a1.384,1.384,0,0,1,0-2.768h3.279a1.384,1.384,0,0,1,0,2.768Zm-87.75,0h-4.2a1.384,1.384,0,0,1,0-2.768h4.2a1.384,1.384,0,0,1,0,2.768Zm80.394,0H133.8a1.384,1.384,0,0,1,0-2.768h75.765a1.384,1.384,0,0,1,0,2.768Z" transform="translate(140.704 -679.368)"/><path class="b" d="M327.371,322.462l-2.805-1.162v33.344a28.036,28.036,0,0,1-13.866,24.2L291.21,390.273a3.762,3.762,0,0,1-3.782,0l-19.49-11.419a28,28,0,0,1-5.339-4.078,28.03,28.03,0,0,0,10.455,10.839l19.49,11.432a3.761,3.761,0,0,0,3.782,0l19.49-11.432a28.066,28.066,0,0,0,13.866-24.2V325.922A3.758,3.758,0,0,0,327.371,322.462Z" transform="translate(18.54 -141.864)"/><path class="a" d="M263.239,304.188a3.761,3.761,0,0,0,3.782,0l19.49-11.419a28.071,28.071,0,0,0,13.866-24.211V235.227l-28.7-11.864a3.689,3.689,0,0,0-2.855,0l-31.514,13.014a3.745,3.745,0,0,0-2.311,3.46v35.482a28.058,28.058,0,0,0,3.4,13.372,28,28,0,0,0,5.339,4.078l19.5,11.419Z" transform="translate(42.788 -55.778)"/><path class="c" d="M235.662,273.881a5.335,5.335,0,0,1-2.682-.729l-20.392-11.964A30.872,30.872,0,0,1,197.4,234.664V197.547a5.274,5.274,0,0,1,3.275-4.894l3.856-1.5a1.385,1.385,0,0,1,1,2.583l-3.831,1.483a2.521,2.521,0,0,0-1.532,2.324v37.128A28.076,28.076,0,0,0,213.985,258.8l20.392,11.964a2.557,2.557,0,0,0,2.558,0L257.327,258.8a28.08,28.08,0,0,0,13.817-24.126V197.547a2.535,2.535,0,0,0-1.557-2.336l-32.96-13.633a2.484,2.484,0,0,0-1.928,0l-14.608,6.143a1.388,1.388,0,0,1-1.075-2.558l14.62-6.155a5.24,5.24,0,0,1,4.054,0l32.973,13.633a5.287,5.287,0,0,1,3.275,4.894v37.128a30.872,30.872,0,0,1-15.189,26.524l-20.392,11.964a5.413,5.413,0,0,1-2.694.729Z" transform="translate(76.025 -16.808)"/><path class="c" d="M285.63,250.9a1.387,1.387,0,0,1-.531-2.669l5.524-2.286a1.391,1.391,0,1,1,1.063,2.571l-5.524,2.286A1.349,1.349,0,0,1,285.63,250.9Z" transform="translate(-0.244 -75.735)"/><path class="d" d="M80.362,96.724A16.362,16.362,0,1,0,64,80.362,16.362,16.362,0,0,0,80.362,96.724Zm-7.812-15A1.169,1.169,0,1,1,74.2,80.075l4.132,4.133,9.093-9.09a1.169,1.169,0,0,1,1.65,1.653l-9.915,9.918a1.169,1.169,0,0,1-1.653,0Z" transform="translate(232.405 130.261)"/><path class="c" d="M421.689,425.177a19.889,19.889,0,1,1,19.889-19.889A19.913,19.913,0,0,1,421.689,425.177Zm0-35.523a15.635,15.635,0,1,0,15.635,15.635A15.653,15.653,0,0,0,421.689,389.654Z" transform="translate(-110.302 -196.393)"/><path class="d" d="M270.584,352.529a1.382,1.382,0,0,1-1.384-1.384v-9.108a6.952,6.952,0,0,1,3.844-6.241c.049-.025.111-.049.161-.074l6.167-2.163a1.388,1.388,0,0,1,.914,2.62l-6.08,2.138a4.194,4.194,0,0,0-2.249,3.72v9.108A1.356,1.356,0,0,1,270.584,352.529Z" transform="translate(12.942 -152.545)"/><path class="d" d="M270.584,525.674a1.382,1.382,0,0,1-1.384-1.384v-5.005a1.384,1.384,0,0,1,2.768,0v5.005A1.374,1.374,0,0,1,270.584,525.674Z" transform="translate(12.955 -314.17)"/></g></svg>