<svg xmlns="http://www.w3.org/2000/svg" width="122" height="110" viewBox="0 0 122 110"><defs><style>.a{fill:#3cbc8c;}.b{fill:#138a5d;}.c{fill:#3e3a39;}.d{fill:#fcee21;}.e{fill:#fff;}</style></defs><g transform="translate(-64.5 -71.7)"><path class="a" d="M317.394,336.233V303.539a4.773,4.773,0,0,0-4.712-4.839H249.112a4.782,4.782,0,0,0-4.712,4.839v65.388a4.773,4.773,0,0,0,4.712,4.839h54.85c2.594,0,13.431-8.773,13.431-11.446Z" transform="translate(-155.239 -195.904)"/><path class="b" d="M320.241,382.286v-57.67a4.8,4.8,0,0,0-1.073-3.016c-9.329,42.125-58.935,62.55-71.468,69.171a4.691,4.691,0,0,0,4.264,2.755h54.847C309.418,393.526,320.241,384.918,320.241,382.286Z" transform="translate(-158.087 -215.665)"/><path class="c" d="M278.3,304.784a1.381,1.381,0,0,1-1.385-1.384V269.156a3.7,3.7,0,0,0-3.687-3.687H210.582a1.385,1.385,0,1,1,0-2.769h62.66a6.459,6.459,0,0,1,6.457,6.457v34.229A1.4,1.4,0,0,1,278.3,304.784Zm-78.6-32.228a1.381,1.381,0,0,1-1.385-1.385v-2.015a6.459,6.459,0,0,1,6.457-6.457h.288a1.385,1.385,0,0,1,0,2.769h-.288a3.7,3.7,0,0,0-3.687,3.688v2.015A1.4,1.4,0,0,1,199.7,272.556Zm37.615,71.529H204.756a6.459,6.459,0,0,1-6.456-6.457V275.791a1.385,1.385,0,0,1,2.769,0v61.851a3.7,3.7,0,0,0,3.687,3.687H237.3a1.381,1.381,0,0,1,1.385,1.385A1.366,1.366,0,0,1,237.313,344.085Z" transform="translate(-115.459 -164.839)"/><path class="d" d="M313.2,506.9h31.816" transform="translate(-214.866 -375.554)"/><path class="c" d="M336.3,499.569H304.485a1.385,1.385,0,1,1,0-2.769H336.3a1.385,1.385,0,0,1,0,2.769Z" transform="translate(-206.148 -366.838)"/><path class="d" d="M313.2,603.4h25.867" transform="translate(-214.85 -458.828)"/><path class="c" d="M330.352,596.069H304.485a1.384,1.384,0,1,1,0-2.769h25.867a1.384,1.384,0,1,1,0,2.769Z" transform="translate(-206.132 -450.113)"/><path class="d" d="M313.2,699.8h17.149" transform="translate(-214.83 -542.016)"/><path class="c" d="M321.72,692.469H304.584a1.384,1.384,0,1,1,0-2.769H321.72a1.384,1.384,0,1,1,0,2.769Z" transform="translate(-206.198 -533.301)"/><path class="d" d="M316.1,404h63.852" transform="translate(-217.513 -286.757)"/><path class="c" d="M371.237,396.669H307.384a1.385,1.385,0,0,1,0-2.769h63.866a1.385,1.385,0,1,1-.014,2.769Z" transform="translate(-208.801 -278.041)"/><path class="e" d="M341.429,223.125h-5.908A.521.521,0,0,1,335,222.6V206.621a.521.521,0,0,1,.521-.521h5.908a.521.521,0,0,1,.521.521v16A.518.518,0,0,1,341.429,223.125Z" transform="translate(-233.64 -115.981)"/><path class="c" d="M120.6,215.794a4.846,4.846,0,0,1-4.822-4.853V200.853a4.822,4.822,0,1,1,9.644,0v10.089A4.829,4.829,0,0,1,120.6,215.794Zm0-17.025a2.076,2.076,0,0,0-2.07,2.084v10.089a2.071,2.071,0,1,0,4.141,0V200.853A2.067,2.067,0,0,0,120.6,198.769Zm68.925,87.759h-3.269a1.385,1.385,0,0,1,0-2.769h3.269a1.385,1.385,0,0,1,0,2.769Zm-101.167,0H84.176a1.385,1.385,0,0,1,0-2.769h4.182a1.385,1.385,0,0,1,0,2.769Zm92.64,0H92.689a1.385,1.385,0,0,1,0-2.769H181a1.385,1.385,0,0,1,0,2.769Z" transform="translate(-15.791 -107.282)"/><path class="e" d="M556.023,627.523m-17.423,0A17.423,17.423,0,1,0,556.023,610.1,17.423,17.423,0,0,0,538.6,627.523Z" transform="translate(-409.618 -464.617)"/><path class="c" d="M530.535,615.769a20.535,20.535,0,1,1,20.521-20.521A20.558,20.558,0,0,1,530.535,615.769Zm0-38.287A17.766,17.766,0,1,0,548.3,595.248a17.779,17.779,0,0,0-17.766-17.766Z" transform="translate(-384.945 -434.069)"/><path class="c" d="M584.717,684.761a1.331,1.331,0,0,1-.918-.356l-8.883-7.978a1.379,1.379,0,1,1,1.837-2.056l7.772,6.977,10.61-13.873a1.379,1.379,0,0,1,2.193,1.672l-11.515,15.065a1.373,1.373,0,0,1-.973.535A.34.34,0,0,1,584.717,684.761Z" transform="translate(-440.535 -513.658)"/><path class="a" d="M668.542,79.185a3.742,3.742,0,1,1,3.742-3.742A3.747,3.747,0,0,1,668.542,79.185Zm0-5.648a1.905,1.905,0,1,0,1.905,1.905A1.9,1.9,0,0,0,668.542,73.537Z" transform="translate(-518.501)"/><path class="a" d="M213.275,154.54H211.63V152.9a.8.8,0,0,0-1.59,0v1.645H208.4a.8.8,0,1,0,0,1.59h1.645v1.645a.8.8,0,0,0,1.59,0V156.13h1.645a.8.8,0,1,0,0-1.59ZM296.1,170.483h-1.645v-1.645a.8.8,0,1,0-1.59,0v1.645h-1.645a.8.8,0,0,0,0,1.59h1.645v1.645a.8.8,0,1,0,1.59,0v-1.645H296.1a.8.8,0,1,0,0-1.59Z" transform="translate(-124.171 -69.379)"/><path class="b" d="M71.08,425.924H69.174v-1.905a.918.918,0,1,0-1.837,0v1.905H65.418a.918.918,0,0,0,0,1.837h1.905v1.905a.918.918,0,1,0,1.837,0v-1.905h1.905a.919.919,0,0,0,.918-.918A.907.907,0,0,0,71.08,425.924Z" transform="translate(0 -303.24)"/><path class="b" d="M331.384,100.385m-1.385,0A1.385,1.385,0,1,0,331.384,99,1.385,1.385,0,0,0,330,100.385Z" transform="translate(-229.314 -23.558)"/><path class="b" d="M779.237,150.737m-1.837,0a1.837,1.837,0,1,0,1.837-1.837A1.837,1.837,0,0,0,777.4,150.737Z" transform="translate(-615.739 -66.617)"/><path class="a" d="M533.737,104.137m-1.837,0a1.837,1.837,0,1,0,1.837-1.837A1.837,1.837,0,0,0,531.9,104.137Z" transform="translate(-403.698 -26.405)"/><path class="b" d="M101.942,244.785a3.742,3.742,0,1,1,3.742-3.742A3.747,3.747,0,0,1,101.942,244.785Zm0-5.648a1.905,1.905,0,1,0,1.905,1.905A1.9,1.9,0,0,0,101.942,239.137Z" transform="translate(-29.08 -142.904)"/><path class="a" d="M459.5,157.585a.53.53,0,0,0-.727,0,.5.5,0,0,0,0,.713l1.631,1.631a.5.5,0,0,0,.713,0,.53.53,0,0,0,0-.727Zm4.332,4.332a.5.5,0,0,0-.713,0,.53.53,0,0,0,0,.727l1.631,1.631a.5.5,0,1,0,.713-.713Zm-.37-1.823a.5.5,0,0,0,.356-.151l1.631-1.631a.5.5,0,0,0,0-.713.5.5,0,0,0-.727,0l-1.618,1.631a.53.53,0,0,0,0,.727A.486.486,0,0,0,463.459,160.093Zm-3.043,1.823-1.631,1.631a.5.5,0,1,0,.713.713l1.631-1.631a.5.5,0,1,0-.713-.713Zm.315-.987a.506.506,0,0,0-.507-.507h-2.317a.507.507,0,0,0,0,1.014h2.317A.506.506,0,0,0,460.731,160.929Zm5.607-.507h-2.317a.507.507,0,0,0,0,1.014h2.317a.506.506,0,0,0,.507-.507A.515.515,0,0,0,466.338,160.422Zm-4.222-4.222a.506.506,0,0,0-.507.507v2.317a.507.507,0,1,0,1.014,0v-2.3A.509.509,0,0,0,462.116,156.2Zm0,6.114a.506.506,0,0,0-.507.507v2.317a.507.507,0,1,0,1.014,0v-2.317A.506.506,0,0,0,462.116,162.314Z" transform="translate(-339.368 -72.917)"/><path class="b" d="M892.7,408.285a.53.53,0,0,0-.727,0,.5.5,0,0,0,0,.713l1.631,1.631a.5.5,0,0,0,.713,0,.53.53,0,0,0,0-.727Zm4.332,4.318a.5.5,0,0,0-.713,0,.53.53,0,0,0,0,.727l1.631,1.631a.5.5,0,1,0,.713-.713Zm-.37-1.809a.5.5,0,0,0,.356-.151l1.631-1.631a.5.5,0,0,0,0-.713.5.5,0,0,0-.727,0l-1.631,1.631a.53.53,0,0,0,0,.727A.616.616,0,0,0,896.659,410.793Zm-3.043,1.809-1.631,1.631a.5.5,0,1,0,.713.713l1.631-1.631a.5.5,0,1,0-.713-.713Zm.315-.973a.506.506,0,0,0-.507-.507h-2.317a.506.506,0,0,0-.507.507.515.515,0,0,0,.507.507h2.317A.515.515,0,0,0,893.931,411.629Zm5.607-.521h-2.317a.506.506,0,0,0-.507.507.515.515,0,0,0,.507.507h2.317a.506.506,0,0,0,.507-.507A.515.515,0,0,0,899.538,411.108Zm-4.222-4.208a.506.506,0,0,0-.507.507v2.317a.506.506,0,0,0,.507.507.515.515,0,0,0,.507-.507v-2.317A.5.5,0,0,0,895.315,406.9Zm0,6.114a.506.506,0,0,0-.507.507v2.317a.506.506,0,0,0,.507.507.515.515,0,0,0,.507-.507v-2.317A.49.49,0,0,0,895.315,413.014Z" transform="translate(-713.545 -289.26)"/><path class="e" d="M607.829,223.125h-5.908a.521.521,0,0,1-.521-.521V206.621a.521.521,0,0,1,.521-.521h5.908a.521.521,0,0,1,.521.521v16A.518.518,0,0,1,607.829,223.125Z" transform="translate(-463.738 -115.981)"/><path class="c" d="M596.153,215.794a4.862,4.862,0,0,1-4.853-4.853V200.853a4.853,4.853,0,0,1,9.705,0v10.089A4.844,4.844,0,0,1,596.153,215.794Zm0-17.025a2.083,2.083,0,0,0-2.084,2.084v10.089a2.084,2.084,0,1,0,4.167,0V200.853A2.074,2.074,0,0,0,596.153,198.769Z" transform="translate(-455.025 -107.265)"/><path class="e" d="M262.585,318.907a1.381,1.381,0,0,1-1.385-1.384V313.3a4.405,4.405,0,0,1,4.4-4.4h2.44a1.385,1.385,0,1,1,0,2.769H265.6a1.65,1.65,0,0,0-1.645,1.645v4.222A1.357,1.357,0,0,1,262.585,318.907Z" transform="translate(-169.898 -204.691)"/><path class="e" d="M262.585,463.444a1.381,1.381,0,0,1-1.385-1.385V446.884a1.385,1.385,0,1,1,2.769,0v15.175A1.381,1.381,0,0,1,262.585,463.444Z" transform="translate(-169.891 -322.571)"/></g></svg>