<svg xmlns="http://www.w3.org/2000/svg" xmlns:xlink="http://www.w3.org/1999/xlink" width="30" height="30" viewBox="0 0 30 30"><defs><style>.a{fill:#4936DF;}.b{clip-path:url(#a);}.c{fill:#33363e;}</style><clipPath id="a"><rect class="a" width="30" height="30" transform="translate(33 38)"/></clipPath></defs><g class="b" transform="translate(-33 -38)"><g transform="translate(33 40)"><path class="a" d="M15663.991-1729.047s.945.23,1.3.3.265,3.6.265,3.6-.184-.038-.457-.1c-.436-.107-1.075-.257-1.232-.3C15663.883-1725.814,15663.991-1729.047,15663.991-1729.047Z" transform="translate(-15651.556 1751.242)"/><path class="a" d="M12.7,23.487h0c-.174-.041-.35-.085-.525-.133V19.818l.525.155v.008C12.706,20.229,12.731,22.43,12.7,23.487ZM11.347,23.1h0c-.433-.143-.874-.31-1.313-.494a19.642,19.642,0,0,1-2.786-1.446,18.553,18.553,0,0,1-2.649-2,15.627,15.627,0,0,1-2.257-2.536l1.985-1.985a11.649,11.649,0,0,0,1.941,2.03,7.353,7.353,0,0,0,.9.64V4.818l4.18-1.731V19.573h0ZM1.875,15.922h0A12.835,12.835,0,0,1,.8,13.756a12.063,12.063,0,0,1-.643-2.413A14.284,14.284,0,0,1,.009,8.761,11.24,11.24,0,0,1,.3,6.567,9.787,9.787,0,0,1,.94,4.733a9.418,9.418,0,0,1,.874-1.5A10.033,10.033,0,0,1,3.868,1.118,11.356,11.356,0,0,1,5.644,0,10.347,10.347,0,0,0,1.853,7.768a12.85,12.85,0,0,0,1.992,6.184l-1.97,1.97Z" transform="translate(0 2.305)"/><g transform="translate(5.436 0)"><path class="c" d="M15155.034-2361.984h-4.613l-5.146,6.319,5.146,6.473h4.348l-5.087-6.473Z" transform="translate(-15134.027 2369.097)"/><path class="a" d="M15032.483-2434.222s5.963,1.591,11.221-1.415,6.34-8.655,4.013-14.065-10.6-11.621-20.027-9.5c1.766.24,10.033-.881,15.492,5.369,1.767,1.923,5.739,7.493,1.163,13.263-2.969,3.085-7.187,3.727-11.861,2.8C15032.386-2435.917,15032.483-2434.222,15032.483-2434.222Z" transform="translate(-15024.314 2460.229)"/><path class="a" d="M15070.83-2361.984h4.561l2.312,2.99-2.224,2.836Z" transform="translate(-15064.567 2369.097)"/><path class="a" d="M15070.83-2360.825h4.561l2.378-3.257-2.29-2.9Z" transform="translate(-15064.567 2380.963)"/><path class="c" d="M1.4,0l.385.967L2.8,1.044l-.777.675.242,1.014L1.4,2.183l-.865.55L.777,1.718,0,1.044,1.015.967Z" transform="translate(0 1.094) rotate(-23)"/></g></g></g></svg>