<svg xmlns="http://www.w3.org/2000/svg" xmlns:xlink="http://www.w3.org/1999/xlink" width="21" height="21" viewBox="0 0 21 21"><defs><style>.a{fill:#fff;}.b{clip-path:url(#a);}.c{fill:#4936DF;}.d{fill:#a0a5af;}</style><clipPath id="a"><rect class="a" width="21" height="21" transform="translate(181 372)"/></clipPath></defs><g class="b" transform="translate(-181 -372)"><g transform="translate(5 3.62)"><ellipse class="c" cx="4.2" cy="4.048" rx="4.2" ry="4.048" transform="translate(178.52 370.38)"/><path class="d" d="M5,0H8.439a5,5,0,0,1,5,5V7.286a0,0,0,0,1,0,0H0a0,0,0,0,1,0,0V5A5,5,0,0,1,5,0Z" transform="translate(176 380.094)"/><ellipse class="c" cx="3.36" cy="3.238" rx="3.36" ry="3.238" transform="translate(187.76 373.618)"/><path class="d" d="M15,3.666H8.439V1.38A4.981,4.981,0,0,0,7.086-2.04,4.006,4.006,0,0,1,8.22-2.2H11a4,4,0,0,1,4,4V3.665Z" transform="translate(182 383.714)"/></g></g></svg>