<svg xmlns="http://www.w3.org/2000/svg" xmlns:xlink="http://www.w3.org/1999/xlink" width="20" height="20" viewBox="0 0 20 20"><defs><style>.a{fill:#fff;stroke:#707070;}.b{clip-path:url(#a);}.c{fill:#5a6068;stroke:#5a6068;stroke-width:0.5px;}</style><clipPath id="a"><rect class="a" width="20" height="20" transform="translate(75 484)"/></clipPath></defs><g class="b" transform="translate(-75 -484)"><path class="c" d="M6.593,17.708l-.01-.209h1.3l0,.032a.867.867,0,0,0,.726.855l.14.012a.867.867,0,0,0,.867-.9h1.3a2.167,2.167,0,0,1-2.063,2.164l-.106,0A2.166,2.166,0,0,1,6.593,17.708Zm-3.677-.624H0v-1.25H1.667v-7.5A7.092,7.092,0,0,1,8.125,1.277V0h1.25V1.277a7.093,7.093,0,0,1,6.458,7.056v7.5H17.5v1.25H2.917Zm11.668-1.251v-7.5a5.833,5.833,0,0,0-11.667,0v7.5Z" transform="translate(76.25 484)"/></g></svg>