<svg xmlns="http://www.w3.org/2000/svg" width="14" height="16" viewBox="0 0 14 16"><defs><style>.a{fill:#838b9c;}</style></defs><g transform="translate(-153.6 -87.04)"><path class="a" d="M166.4,445.44H154.8a1.2,1.2,0,0,0-1.2,1.2v7.182a1.2,1.2,0,0,0,1.2,1.2h11.6a1.2,1.2,0,0,0,1.2-1.2v-7.182A1.2,1.2,0,0,0,166.4,445.44Zm-5.8,8.209a1.695,1.695,0,0,1-.65-3.262v-2.573a.65.65,0,0,1,1.3,0v2.573a1.695,1.695,0,0,1-.65,3.262Z" transform="translate(0 -351.976)"/><path class="a" d="M288.644,94.082h-1.3V91.559a3.244,3.244,0,0,0-6.489,0v2.524h-1.3V91.559a4.546,4.546,0,0,1,9.092.01Z" transform="translate(-123.498)"/></g></svg>