<svg xmlns="http://www.w3.org/2000/svg" xmlns:xlink="http://www.w3.org/1999/xlink" width="22" height="22" viewBox="0 0 22 22"><defs><style>.a{fill:#fff;stroke:#707070;}.b{clip-path:url(#a);}.c{fill:#838b9c;}</style><clipPath id="a"><rect class="a" width="22" height="22" transform="translate(100 1404)"/></clipPath></defs><g class="b" transform="translate(-100 -1404)"><g transform="translate(101 1405)"><path class="c" d="M15.139,20A1.144,1.144,0,0,1,14,18.854V1.146A1.144,1.144,0,0,1,15.139,0H18.86A1.145,1.145,0,0,1,20,1.146V18.854A1.144,1.144,0,0,1,18.86,20Zm.361-1.5h3V1.5h-3ZM8.16,20a1.137,1.137,0,0,1-1.126-1.146V5.349A1.138,1.138,0,0,1,8.16,4.2h3.683a1.138,1.138,0,0,1,1.126,1.147V18.854A1.142,1.142,0,0,1,11.84,20ZM8.5,18.456h3V5.656h-3ZM1.127,20A1.137,1.137,0,0,1,0,18.855V8.927A1.138,1.138,0,0,1,1.127,7.781H4.809A1.138,1.138,0,0,1,5.936,8.927v9.93A1.14,1.14,0,0,1,4.809,20ZM1.5,18.5H4.482V9.275H1.5Z"/></g></g></svg>