<svg xmlns="http://www.w3.org/2000/svg" width="14" height="14" viewBox="0 0 14 14"><defs><style>.a{fill:#838b9c;}</style></defs><path class="a" d="M78.591,86.614H67.772l-.188-1.582a.541.541,0,0,0-.518-.469h-.1a.43.43,0,0,0-.123.018H65.518a.521.521,0,1,0,0,1.04h1.109l1.059,8.933a.541.541,0,0,0,.518.47h.1a.43.43,0,0,0,.122-.017h8.749a.521.521,0,1,0,0-1.04H68.643l-.13-1.094H77.2a.611.611,0,0,0,.565-.461l1.182-5.334a.36.36,0,0,0-.36-.461ZM68.623,97.3a1.236,1.236,0,1,0,1.236-1.264A1.25,1.25,0,0,0,68.623,97.3Zm6.126,0a1.236,1.236,0,1,0,1.236-1.264A1.25,1.25,0,0,0,74.749,97.3Z" transform="translate(-64.963 -84.562)"/></svg>