<svg xmlns="http://www.w3.org/2000/svg" width="20" height="20" viewBox="0 0 20 20"><defs><style>.a{fill:none;}.b,.c{stroke:none;}.c{fill:#d9d9d9;}</style></defs><g class="a" transform="translate(-4515 -4005)"><path class="b" d="M4533.194,4024.691l-3.39-3.378a9.118,9.118,0,1,1,1.5-1.481l3.383,3.371a1.055,1.055,0,0,1-1.5,1.489Z"/><path class="c" d="M 4524.158203125 4021.753173828125 C 4525.88916015625 4021.753173828125 4527.5224609375 4021.192138671875 4528.88134765625 4020.130615234375 L 4529.58251953125 4019.5830078125 L 4530.138671875 4018.89111328125 C 4531.236328125 4017.526611328125 4531.81640625 4015.87939453125 4531.81640625 4014.127197265625 C 4531.81640625 4009.92138671875 4528.380859375 4006.499755859375 4524.158203125 4006.499755859375 C 4519.935546875 4006.499755859375 4516.5 4009.92138671875 4516.5 4014.127197265625 C 4516.5 4018.332275390625 4519.935546875 4021.753173828125 4524.158203125 4021.753173828125 M 4533.943359375 4024.999755859375 C 4533.6728515625 4024.999755859375 4533.4013671875 4024.897216796875 4533.1943359375 4024.691162109375 L 4529.8046875 4021.312744140625 C 4528.2490234375 4022.528076171875 4526.2880859375 4023.253173828125 4524.158203125 4023.253173828125 C 4519.099609375 4023.253173828125 4515 4019.167724609375 4515 4014.127197265625 C 4515 4009.087158203125 4519.099609375 4004.999755859375 4524.158203125 4004.999755859375 C 4529.216796875 4004.999755859375 4533.31640625 4009.087158203125 4533.31640625 4014.127197265625 C 4533.31640625 4016.285888671875 4532.564453125 4018.268798828125 4531.3076171875 4019.831298828125 L 4534.6904296875 4023.201904296875 C 4535.1025390625 4023.614013671875 4535.1025390625 4024.280517578125 4534.6904296875 4024.691162109375 C 4534.4833984375 4024.897216796875 4534.2138671875 4024.999755859375 4533.943359375 4024.999755859375 Z"/></g></svg>