<svg xmlns="http://www.w3.org/2000/svg" width="24" height="24" viewBox="0 0 24 24"><defs><style>.a{fill:#defff3;}.b{fill:none;}.c,.d{stroke:none;}.d{fill:#3cbc8c;}</style></defs><g transform="translate(-292 -17)"><circle class="a" cx="12" cy="12" r="12" transform="translate(292 17)"/><g class="b" transform="translate(-4218 -3983)"><path class="c" d="M4527.736,4018.784l-2.373-2.365a6.381,6.381,0,1,1,1.052-1.037l2.368,2.359a.739.739,0,0,1-1.047,1.042Z"/><path class="d" d="M 4521.41064453125 4016.277099609375 C 4522.52099609375 4016.277099609375 4523.568359375 4015.917236328125 4524.439453125 4015.23681640625 L 4524.89013671875 4014.884521484375 L 4525.24609375 4014.441650390625 C 4525.94970703125 4013.5673828125 4526.3212890625 4012.51171875 4526.3212890625 4011.388916015625 C 4526.3212890625 4008.693115234375 4524.1181640625 4006.499755859375 4521.41064453125 4006.499755859375 C 4518.703125 4006.499755859375 4516.5 4008.693115234375 4516.5 4011.388916015625 C 4516.5 4014.084228515625 4518.703125 4016.277099609375 4521.41064453125 4016.277099609375 M 4528.259765625 4018.999755859375 C 4528.0703125 4018.999755859375 4527.880859375 4018.927734375 4527.73583984375 4018.78369140625 L 4525.36279296875 4016.418701171875 C 4524.27392578125 4017.26953125 4522.9013671875 4017.777099609375 4521.41064453125 4017.777099609375 C 4517.86962890625 4017.777099609375 4515 4014.917236328125 4515 4011.388916015625 C 4515 4007.86083984375 4517.86962890625 4004.999755859375 4521.41064453125 4004.999755859375 C 4524.951171875 4004.999755859375 4527.8212890625 4007.86083984375 4527.8212890625 4011.388916015625 C 4527.8212890625 4012.89990234375 4527.294921875 4014.2880859375 4526.4150390625 4015.3818359375 L 4528.78271484375 4017.7412109375 C 4529.0712890625 4018.029541015625 4529.0712890625 4018.496337890625 4528.78271484375 4018.78369140625 C 4528.63818359375 4018.927734375 4528.44921875 4018.999755859375 4528.259765625 4018.999755859375 Z"/></g></g></svg>