<svg xmlns="http://www.w3.org/2000/svg" xmlns:xlink="http://www.w3.org/1999/xlink" width="40" height="40" viewBox="0 0 40 40"><defs><style>.a{fill:#fff;}.b{fill:#138a5d;}.c{clip-path:url(#a);}</style><clipPath id="a"><rect class="a" width="20" height="20" transform="translate(20.154 175.154)"/></clipPath></defs><g transform="translate(-118 -286)"><circle class="b" cx="20" cy="20" r="20" transform="translate(118 286)"/><g class="c" transform="translate(107.846 120.846)"><g transform="translate(16.004 185.146) rotate(-45)"><path class="a" d="M10,20A10,10,0,0,1,10,0V1.38A8.62,8.62,0,1,0,18.62,10H20A10.012,10.012,0,0,1,10,20Z"/><path class="a" d="M0,0H5.829V5.829H4.373V1.459H0Z" transform="translate(11.178 2.879)"/><path class="a" d="M9.275,1.031,1.031,9.275,0,8.244,8.244,0Z" transform="translate(7.634 3.008)"/></g></g></g></svg>