<svg xmlns="http://www.w3.org/2000/svg" width="40" height="40" viewBox="0 0 40 40"><defs><style>.a{fill:#defff3;}.b{fill:#138a5d;stroke-miterlimit:10;}.c{fill:#fff;}.d,.e{stroke:none;}.e{fill:#4936DF;}</style></defs><g transform="translate(-310 -282)"><rect class="a" width="40" height="40" rx="15" transform="translate(310 282)"/><g class="b" transform="translate(316.107 288.107)"><path class="d" d="M 18.36939239501953 26.45954132080078 C 18.05976104736328 26.45954132080078 17.75289154052734 26.3748607635498 17.48196220397949 26.21465110778809 L 15.03798198699951 24.76948165893555 C 14.69140148162842 24.56454086303711 14.29539203643799 24.45621109008789 13.89275169372559 24.45621109008789 C 13.49011135101318 24.45621109008789 13.09410190582275 24.56454086303711 12.74752140045166 24.76948165893555 L 10.303542137146 26.21465110778809 C 10.03266143798828 26.37483215332031 9.725781440734863 26.45951080322266 9.416091918945312 26.45954132080078 C 8.615171432495117 26.45962142944336 7.916821479797363 25.91848182678223 7.717811584472656 25.14360237121582 L 7.011541843414307 22.39355087280273 C 6.807411670684814 21.59868240356445 6.186821460723877 20.97809219360352 5.391951560974121 20.77396202087402 L 2.641901731491089 20.06769180297852 C 2.103701591491699 19.92947196960449 1.673061728477478 19.55577087402344 1.460421681404114 19.04240226745605 C 1.247771739959717 18.52902221679688 1.288021683692932 17.96027183532715 1.570851683616638 17.48196220397949 L 3.016031742095947 15.03798198699951 C 3.433741807937622 14.33158206939697 3.433741807937622 13.4539213180542 3.016031742095947 12.74752140045166 L 1.570851683616638 10.303542137146 C 1.288021683692932 9.825242042541504 1.247771739959717 9.256482124328613 1.460411667823792 8.743111610412598 C 1.673061728477478 8.229742050170898 2.103691577911377 7.856031894683838 2.641901731491089 7.717811584472656 L 5.391951560974121 7.011541843414307 C 6.186821460723877 6.807411670684814 6.807411670684814 6.186821460723877 7.011541843414307 5.391951560974121 L 7.717811584472656 2.641901731491089 C 7.916801929473877 1.867091655731201 8.615161895751953 1.325961709022522 9.416111946105957 1.325961709022522 C 9.725741386413574 1.325961709022522 10.03261184692383 1.410641670227051 10.303542137146 1.570851683616638 L 12.74752140045166 3.016031742095947 C 13.09410190582275 3.220971584320068 13.49011135101318 3.329291582107544 13.89275169372559 3.329291582107544 C 14.29539203643799 3.329291582107544 14.69140148162842 3.220971584320068 15.03798198699951 3.016031742095947 L 17.48196220397949 1.570851683616638 C 17.75289154052734 1.410641670227051 18.05976104736328 1.325961709022522 18.36939239501953 1.325961709022522 C 19.17034149169922 1.325961709022522 19.86871147155762 1.867091655731201 20.06769180297852 2.641891717910767 L 20.77396202087402 5.391951560974121 C 20.97809219360352 6.186821460723877 21.59868240356445 6.807411670684814 22.39355087280273 7.011541843414307 L 25.14360237121582 7.717811584472656 C 25.68181228637695 7.856031894683838 26.11244201660156 8.229742050170898 26.32509231567383 8.743111610412598 C 26.5377311706543 9.256482124328613 26.49748229980469 9.825242042541504 26.21465110778809 10.303542137146 L 24.76948165893555 12.74752140045166 C 24.35176086425781 13.4539213180542 24.35176086425781 14.33158206939697 24.76948165893555 15.03798198699951 L 26.21465110778809 17.48196220397949 C 26.49748229980469 17.96027183532715 26.5377311706543 18.52902221679688 26.32508087158203 19.04240226745605 C 26.11244201660156 19.55577087402344 25.68180084228516 19.92947196960449 25.14361190795898 20.06769180297852 L 22.39355087280273 20.77396202087402 C 21.59868240356445 20.97809219360352 20.97809219360352 21.59868240356445 20.77396202087402 22.39355087280273 L 20.06769180297852 25.14360237121582 C 19.86871147155762 25.91841125488281 19.17034149169922 26.45954132080078 18.36939239501953 26.45954132080078 Z"/><path class="e" d="M 18.36939239501953 26.20954132080078 C 19.05617141723633 26.20954132080078 19.65496253967285 25.74564170837402 19.82555198669434 25.0814208984375 L 20.53181076049805 22.33137130737305 C 20.75863075256348 21.44818115234375 21.44818115234375 20.75863075256348 22.33137130737305 20.53182220458984 L 25.0814208984375 19.82554244995117 C 25.54273223876953 19.70707130432129 25.91184234619141 19.38676261901855 26.09411239624023 18.94673156738281 C 26.27638244628906 18.50669097900391 26.24188232421875 18.0191822052002 25.99945259094238 17.60921096801758 L 24.55429077148438 15.16523170471191 C 24.09015083312988 14.38034152984619 24.09015083312988 13.40516185760498 24.55428123474121 12.62027168273926 L 25.99945259094238 10.17629146575928 C 26.24188232421875 9.766322135925293 26.27638244628906 9.278811454772949 26.0941219329834 8.838781356811523 C 25.91185188293457 8.398751258850098 25.54273223876953 8.078432083129883 25.0814208984375 7.959951877593994 L 22.33137130737305 7.253691673278809 C 21.44818115234375 7.026871681213379 20.75863075256348 6.337321758270264 20.53182220458984 5.454131603240967 L 19.82554244995117 2.704081773757935 C 19.65497207641602 2.039861679077148 19.05617141723633 1.575961709022522 18.36939239501953 1.575961709022522 C 18.10450172424316 1.575961709022522 17.84163093566895 1.648611664772034 17.60921096801758 1.786051750183105 L 15.16523170471191 3.231221675872803 C 14.78016185760498 3.458931684494019 14.3401517868042 3.579291582107544 13.89275169372559 3.579291582107544 C 13.44537162780762 3.579291582107544 13.00535202026367 3.458931684494019 12.62027168273926 3.231231689453125 L 10.17629146575928 1.786051750183105 C 9.94387149810791 1.648611664772034 9.681001663208008 1.575961709022522 9.416111946105957 1.575961709022522 C 8.729331970214844 1.575961709022522 8.130541801452637 2.039861679077148 7.959951877593994 2.704081773757935 L 7.253691673278809 5.454131603240967 C 7.026871681213379 6.337321758270264 6.337321758270264 7.026871681213379 5.454131603240967 7.253681659698486 L 2.704081773757935 7.959951877593994 C 2.242771625518799 8.078432083129883 1.873651742935181 8.398751258850098 1.691381692886353 8.838781356811523 C 1.509121656417847 9.278811454772949 1.54362165927887 9.766322135925293 1.786051750183105 10.17629146575928 L 3.231231689453125 12.62028121948242 C 3.695351600646973 13.40517139434814 3.695351600646973 14.38033199310303 3.231231689453125 15.16523170471191 L 1.786051750183105 17.60921096801758 C 1.54362165927887 18.0191822052002 1.509121656417847 18.50669097900391 1.691391706466675 18.94673156738281 C 1.873661637306213 19.38676261901855 2.242771625518799 19.70707130432129 2.704081773757935 19.82555198669434 L 5.454131603240967 20.53181076049805 C 6.337321758270264 20.75863075256348 7.026871681213379 21.44818115234375 7.253681659698486 22.33137130737305 L 7.959951877593994 25.08141136169434 C 8.130561828613281 25.74570083618164 8.729331970214844 26.20960235595703 9.416051864624023 26.20954132080078 C 9.681031227111816 26.20951080322266 9.94392204284668 26.13686180114746 10.17629146575928 25.99945259094238 L 12.62027168273926 24.55428123474121 C 13.00536155700684 24.32657241821289 13.4453821182251 24.20621109008789 13.89275169372559 24.20621109008789 C 14.34013175964355 24.20621109008789 14.7801513671875 24.32657241821289 15.16523170471191 24.55428123474121 L 17.60921096801758 25.99945259094238 C 17.84163093566895 26.13689231872559 18.10450172424316 26.20954132080078 18.36939239501953 26.20954132080078 M 18.3693904876709 26.70953941345215 C 18.02695655822754 26.70953941345215 17.67775535583496 26.62086486816406 17.35471153259277 26.42984199523926 L 14.91073131561279 24.98467254638672 C 14.28286266326904 24.6133918762207 13.50264072418213 24.6133918762207 12.87477207183838 24.98467254638672 L 10.4307918548584 26.42984199523926 C 9.283933639526367 27.10800552368164 7.807092189788818 26.49627304077148 7.475671768188477 25.20579147338867 L 6.769401550292969 22.45574188232422 C 6.587961673736572 21.74923133850098 6.036271572113037 21.19754219055176 5.329761505126953 21.0161018371582 L 2.579711675643921 20.3098316192627 C 1.289231657981873 19.97842216491699 0.6775016784667969 18.50157165527344 1.355661749839783 17.35471153259277 L 2.800841808319092 14.91073131561279 C 3.172111749649048 14.28286170959473 3.172111749649048 13.50264167785645 2.800841808319092 12.87477207183838 L 1.355661749839783 10.4307918548584 C 0.6775016784667969 9.283931732177734 1.289231657981873 7.80709171295166 2.579711675643921 7.475671768188477 L 5.329761505126953 6.769401550292969 C 6.036271572113037 6.587961673736572 6.587961673736572 6.036271572113037 6.769401550292969 5.329761505126953 L 7.475671768188477 2.579711675643921 C 7.807092189788818 1.289232492446899 9.283927917480469 0.6775007247924805 10.4307918548584 1.355661749839783 L 12.87477207183838 2.800841808319092 C 13.50264072418213 3.172111511230469 14.28286266326904 3.172111511230469 14.91073131561279 2.800841808319092 L 17.35471153259277 1.355661749839783 C 18.50157356262207 0.6775023937225342 19.97842216491699 1.289231300354004 20.3098316192627 2.579711675643921 L 21.0161018371582 5.329761505126953 C 21.19754219055176 6.036271572113037 21.74923133850098 6.587961673736572 22.45574188232422 6.769401550292969 L 25.20579147338867 7.475671768188477 C 26.49627113342285 7.80709171295166 27.10800170898438 9.283931732177734 26.42984199523926 10.4307918548584 L 24.98467254638672 12.87477207183838 C 24.6133918762207 13.50264167785645 24.6133918762207 14.28286170959473 24.98467254638672 14.91073131561279 L 26.42984199523926 17.35471153259277 C 27.10800170898438 18.50157165527344 26.49627113342285 19.97842216491699 25.20579147338867 20.3098316192627 L 22.45574188232422 21.0161018371582 C 21.74923133850098 21.19754219055176 21.19754219055176 21.74923133850098 21.0161018371582 22.45574188232422 L 20.3098316192627 25.20579147338867 C 20.0717716217041 26.13277244567871 19.24265289306641 26.70953941345215 18.3693904876709 26.70953941345215 Z"/></g><path class="c" d="M8.157,0,9.846,1.58,3.1,8.205,0,5.131l1.434-1.88L3.1,5.131Z" transform="translate(325.106 297.768)"/></g></svg>