<svg xmlns="http://www.w3.org/2000/svg" width="40" height="40" viewBox="0 0 40 40"><defs><style>.a{fill:#defff3;}.b{fill:none;}.c{fill:#138a5d;stroke-miterlimit:10;}.d{fill:#fff;}.e,.f{stroke:none;}.f{fill:#4936DF;}</style></defs><g transform="translate(4116 3702)"><rect class="a" width="40" height="40" rx="15" transform="translate(-4116 -3702)"/><path class="b" d="M0,0H25.641V25.641H0Z" transform="translate(-4108.82 -3694.821)"/><g transform="translate(-4109 -3695)"><g class="c"><path class="e" d="M 12.99858093261719 25.75 C 9.593831062316895 25.75 6.392570972442627 24.42363166809082 3.984500885009766 22.01522064208984 C 1.576270937919617 19.60665130615234 0.2500009536743164 16.40447044372559 0.2500009536743164 12.99858093261719 C 0.2500009536743164 9.592881202697754 1.576260924339294 6.391221046447754 3.984480857849121 3.983391046524048 C 6.39237117767334 1.575881004333496 9.59364128112793 0.2500009536743164 12.99858093261719 0.2500009536743164 C 20.02974128723145 0.2500009536743164 25.75 5.968990802764893 25.75 12.99858093261719 C 25.75 16.40353012084961 24.42362022399902 19.60530090332031 22.01519012451172 22.01411056518555 C 19.6064510345459 24.42323112487793 16.4042911529541 25.75 12.99858093261719 25.75 Z"/><path class="f" d="M 12.99858093261719 25.5 C 16.33750152587891 25.5 19.47688102722168 24.19924163818359 21.83840179443359 21.83735084533691 C 24.19962120056152 19.47576141357422 25.5 16.33676147460938 25.5 12.99858093261719 C 25.5 6.106841087341309 19.89189147949219 0.5000009536743164 12.99858093261719 0.5000009536743164 C 9.66041088104248 0.5000009536743164 6.521911144256592 1.799880981445312 4.161241054534912 4.160181045532227 C 1.800251007080078 6.520791053771973 0.5000009536743164 9.659661293029785 0.5000009536743164 12.99858093261719 C 0.5000009536743164 16.33770179748535 1.800270915031433 19.47710037231445 4.161291122436523 21.83846092224121 C 6.522130966186523 24.19964027404785 9.660611152648926 25.5 12.99858093261719 25.5 M 12.99858093261719 26 C 5.821041107177734 26 9.5367431640625e-07 20.17910003662109 9.5367431640625e-07 12.99858093261719 C 9.5367431640625e-07 5.818060874938965 5.821041107177734 9.5367431640625e-07 12.99858093261719 9.5367431640625e-07 C 20.1761302947998 9.5367431640625e-07 26 5.821041107177734 26 12.99858093261719 C 26 20.1761302947998 20.17910003662109 26 12.99858093261719 26 Z"/></g></g><path class="d" d="M166.045,137.933h-2.1V139.2h1.2a.617.617,0,0,1,.6.632v6.947a.617.617,0,0,1-.6.632h-8.4a.617.617,0,0,1-.6-.632v-6.947a.617.617,0,0,1,.6-.632h1.2v-1.263h-2.1a.925.925,0,0,0-.9.947v8.842a.925.925,0,0,0,.9.947h10.2a.925.925,0,0,0,.9-.947V138.88a.925.925,0,0,0-.9-.947Zm-5.078,7.579.223-.235,3.286-3.3-.848-.893-2.083,2.192v-6.134a.462.462,0,0,0-.45-.474h-.3a.463.463,0,0,0-.45.474v5.865l-1.822-1.918-.878.924,3.322,3.5Z" transform="translate(-4256.945 -3824.669)"/></g></svg>