<svg xmlns="http://www.w3.org/2000/svg" xmlns:xlink="http://www.w3.org/1999/xlink" width="16" height="14" viewBox="0 0 16 14"><defs><style>.a{fill:#fff;}.b{clip-path:url(#a);}.c{fill:#838b9c;}</style><clipPath id="a"><rect class="a" width="16" height="14" transform="translate(59 83)"/></clipPath></defs><g class="b" transform="translate(-59 -83)"><g transform="translate(-26.315 -129.333)"><path class="c" d="M101.21,218.858c-1.738-3.675-4.368-5.525-7.894-5.525s-6.154,1.85-7.894,5.527a1.113,1.113,0,0,0,0,.948c1.74,3.675,4.37,5.525,7.894,5.525s6.154-1.85,7.894-5.527A1.112,1.112,0,0,0,101.21,218.858Zm-7.894,5.15c-2.96,0-5.127-1.506-6.656-4.675,1.53-3.17,3.7-4.676,6.656-4.676s5.127,1.506,6.656,4.675c-1.528,3.17-3.694,4.675-6.656,4.675Z" transform="translate(0 0)"/><path class="c" d="M339.023,360.107a3.261,3.261,0,1,0,3.214,3.261,3.238,3.238,0,0,0-3.214-3.261Zm0,5.335a2.075,2.075,0,1,1,2.046-2.075,2.06,2.06,0,0,1-2.046,2.075Z" transform="translate(-245.781 -144.035)"/></g></g></svg>