<svg xmlns="http://www.w3.org/2000/svg" xmlns:xlink="http://www.w3.org/1999/xlink" width="20" height="20" viewBox="0 0 20 20"><defs><style>.a{fill:#fff;stroke:#707070;}.b{clip-path:url(#a);}.c{fill:#838b9c;}</style><clipPath id="a"><rect class="a" width="20" height="20" transform="translate(1700 337)"/></clipPath></defs><g class="b" transform="translate(-1700 -337)"><g transform="translate(1700 338)"><path class="c" d="M17.385,18H2.615A2.808,2.808,0,0,1,0,15.038V2.961A2.807,2.807,0,0,1,2.615,0h14.77A2.807,2.807,0,0,1,20,2.961V15.038A2.808,2.808,0,0,1,17.385,18ZM2.615,1.741A1.156,1.156,0,0,0,1.538,2.961V15.038a1.156,1.156,0,0,0,1.077,1.219h14.77a1.156,1.156,0,0,0,1.076-1.219V2.961a1.156,1.156,0,0,0-1.076-1.219Z" transform="translate(0 0)"/><path class="c" d="M.432,1.463A.77.77,0,0,1,1.107.078L9.183,4.024a.464.464,0,0,0,.4,0L17.662.078a.77.77,0,0,1,.674,1.385L10.262,5.407a2,2,0,0,1-1.755,0Z" transform="translate(0.616 4.197)"/></g></g></svg>