<svg xmlns="http://www.w3.org/2000/svg" width="24" height="24" viewBox="0 0 24 24"><defs><style>.a{fill:#fbebeb;}.b{fill:#db3b3a;}</style></defs><g transform="translate(-25 -213)"><circle class="a" cx="12" cy="12" r="12" transform="translate(25 213)"/><path class="b" d="M171.016,265.892l-3.37-.4a.137.137,0,0,1-.11-.09.134.134,0,0,1,.031-.138l1-.953-3.817-3.771-1.725,1.7a.277.277,0,0,1-.382,0l-5.441-5.365a.141.141,0,0,1,0-.192l.765-.754a.138.138,0,0,1,.188,0l4.683,4.611,1.717-1.693a.284.284,0,0,1,.382,0l4.589,4.525,1-.989a.139.139,0,0,1,.14-.031.136.136,0,0,1,.091.109l.4,3.323a.128.128,0,0,1-.053.085.131.131,0,0,1-.1.022Z" transform="translate(-127.167 -35.895)"/></g></svg>