<svg xmlns="http://www.w3.org/2000/svg" width="24" height="30" viewBox="0 0 24 30"><defs><style>.a{fill:#333;}</style></defs><g transform="translate(-148.451 -65.217)"><path class="a" d="M168.5,290.778c-.037-5.563,3.045-5.707,3.183-5.8a6.939,6.939,0,0,0-5.39-3.013c-2.295-.237-4.478,1.344-5.643,1.344s-2.96-1.347-4.863-1.313a7.2,7.2,0,0,0-6.1,3.743c-2.6,4.576-.666,11.352,1.869,15.06,1.237,1.817,2.714,3.856,4.653,3.784,1.865-.075,2.572-1.227,4.829-1.227s2.889,1.227,4.866,1.186c2.007-.038,3.281-1.851,4.508-3.674a16.81,16.81,0,0,0,2.041-4.147c-.044-.021-3.917-2.238-3.957-5.947Z" transform="translate(0 -209.372)"/><path class="a" d="M511.829,72.792a7.575,7.575,0,0,1,7.575-7.575A7.575,7.575,0,0,1,511.829,72.792Z" transform="translate(-351.525 0)"/></g></svg>