<svg xmlns="http://www.w3.org/2000/svg" width="70" height="70" viewBox="0 0 70 70"><defs><style>.a{fill:#fff;stroke:#707070;}.b{fill:#26a17b;}.c{stroke:none;}.d{fill:none;}</style></defs><g transform="translate(-137 -171)"><g class="a" transform="translate(141.973 174.973)"><ellipse class="c" cx="30.527" cy="26.5" rx="30.527" ry="26.5"/><ellipse class="d" cx="30.527" cy="26.5" rx="30.027" ry="26"/></g><path class="b" d="M99,134A35,35,0,1,0,64,99,35,35,0,0,0,99,134ZM82.29,101.92a2.5,2.5,0,1,1,3.535-3.535l8.84,8.84,19.45-19.445a2.5,2.5,0,0,1,3.53,3.535L96.435,112.53a2.5,2.5,0,0,1-3.535,0Z" transform="translate(73 107)"/></g></svg>