<svg xmlns="http://www.w3.org/2000/svg" xmlns:xlink="http://www.w3.org/1999/xlink" width="40" height="40" viewBox="0 0 40 40"><defs><style>.a{fill:#fff;}.b{fill:#138a5d;}.c{clip-path:url(#a);}</style><clipPath id="a"><rect class="a" width="20" height="20" transform="translate(20.289 125.289)"/></clipPath></defs><g transform="translate(-20 -286)"><circle class="b" cx="20" cy="20" r="20" transform="translate(20 286)"/><g class="c" transform="translate(9.711 170.711)"><g transform="translate(16.121 135.289) rotate(-45)"><path class="a" d="M10,20A10,10,0,0,1,10,0V1.38A8.62,8.62,0,1,0,18.62,10H20A10.012,10.012,0,0,1,10,20Z"/><path class="a" d="M5.754,5.754H0V0H1.437V4.314H5.754Z" transform="translate(8.433 5.651)"/><path class="a" d="M0,8.137,8.137,0,9.155,1.018,1.018,9.155Z" transform="translate(8.54 2.133)"/></g></g></g></svg>