<svg xmlns="http://www.w3.org/2000/svg" width="16" height="14" viewBox="0 0 16 14"><defs><style>.a{fill:#838b9c;}</style></defs><g transform="translate(-85.349 -136.5)"><path class="a" d="M101.245,143.344l0,0a10.987,10.987,0,0,0-2.4-3.377l-.93.922a9.579,9.579,0,0,1,2.094,2.921c-1.528,3.128-3.7,4.614-6.657,4.614a7.1,7.1,0,0,1-2.591-.456l-1,.993a8.235,8.235,0,0,0,3.594.77q5.29,0,7.894-5.452a1.082,1.082,0,0,0,0-.932Zm-1.174-6.032-.778-.769a.148.148,0,0,0-.208,0l-2.142,2.119a8.192,8.192,0,0,0-3.593-.772q-5.291,0-7.895,5.452v0a1.084,1.084,0,0,0,0,.936,11.034,11.034,0,0,0,2.4,3.378L86,149.482a.145.145,0,0,0,0,.206l.778.769a.148.148,0,0,0,.208,0l13.08-12.942a.142.142,0,0,0,0-.2Zm-8.8,6.958a2.018,2.018,0,0,1,.548-1.9,2.069,2.069,0,0,1,1.92-.542l-2.468,2.442Zm3.385-3.35a3.258,3.258,0,0,0-3.666.631,3.173,3.173,0,0,0-.637,3.627l-1.571,1.554a9.606,9.606,0,0,1-2.094-2.921c1.53-3.128,3.7-4.613,6.658-4.613a7.114,7.114,0,0,1,2.591.455Z" transform="translate(0 0)"/><path class="a" d="M440.933,465.215a1.916,1.916,0,0,1-.337-.029l-.916.916a3.156,3.156,0,0,0,4.151-4.151l-.916.916a2.01,2.01,0,0,1-1.982,2.347Z" transform="translate(-347.628 -319.378)"/></g></svg>