<svg xmlns="http://www.w3.org/2000/svg" width="40" height="40" viewBox="0 0 40 40"><defs><style>.a{fill:#defff3;}.b{fill:#138a5d;stroke:#4936DF;stroke-miterlimit:10;stroke-width:0.5px;}.c{fill:#fff;}</style></defs><g transform="translate(-123 -282)"><rect class="a" width="40" height="40" rx="15" transform="translate(123 282)"/><path class="b" d="M8.861,13.784a7.877,7.877,0,1,1,7.877,7.877A7.877,7.877,0,0,1,8.861,13.784ZM1.538,21.661A1.508,1.508,0,0,1,0,20.184V17.231a1.509,1.509,0,0,1,1.538-1.477H7.817a8.842,8.842,0,0,0,4,5.908Zm-.03-7.877A1.492,1.492,0,0,1,0,12.307V9.354A1.493,1.493,0,0,1,1.508,7.877H9.846a8.728,8.728,0,0,0-2.3,5.908Zm.05-7.877a1.6,1.6,0,0,1-1.1-.433A1.44,1.44,0,0,1,0,4.431V1.477A1.519,1.519,0,0,1,1.559,0h15.59a1.519,1.519,0,0,1,1.559,1.477V4.431l-.006.122a9.956,9.956,0,0,0-1.553-.122,9.684,9.684,0,0,0-5.172,1.477Z" transform="translate(132.231 291.231)"/><g transform="translate(145.564 300.461)"><path class="c" d="M4.815,3.7H1.852a.35.35,0,0,1-.37-.37.35.35,0,0,1,.37-.37H5.926V1.481H4.074V0H2.593V1.481H1.852A1.834,1.834,0,0,0,0,3.333,1.834,1.834,0,0,0,1.852,5.185H4.815a.37.37,0,0,1,0,.741H.741V7.407H2.593V8.889H4.074V7.407h.741a1.852,1.852,0,0,0,0-3.7Z"/></g></g></svg>