<svg xmlns="http://www.w3.org/2000/svg" width="40" height="40" viewBox="0 0 40 40"><defs><style>.a{fill:#defff3;}.b{fill:#138a5d;stroke-miterlimit:10;}.c{fill:none;}.d{fill:#fff;}.e,.f{stroke:none;}.f{fill:#4936DF;}</style></defs><g transform="translate(-216 -282)"><rect class="a" width="40" height="40" rx="15" transform="translate(216 282)"/><g class="b" transform="translate(223.18 289.179)"><path class="e" d="M 12.81911277770996 25.39102363586426 C 9.462292671203613 25.39102363586426 6.306092739105225 24.08332252502441 3.931932687759399 21.70882225036621 C 1.557602763175964 19.33415222167969 0.2500027716159821 16.17706298828125 0.2500027716159821 12.81911277770996 C 0.2500027716159821 9.461352348327637 1.557592749595642 6.304762840270996 3.931902885437012 3.930832862854004 C 6.30590295791626 1.557212829589844 9.462102890014648 0.2500027716159821 12.81911277770996 0.2500027716159821 C 19.75128364562988 0.2500027716159821 25.39102363586426 5.888482570648193 25.39102363586426 12.81911277770996 C 25.39102363586426 16.17612266540527 24.08331298828125 19.33283233642578 21.70879364013672 21.70772361755371 C 19.33396339416504 24.08293342590332 16.17687225341797 25.39102363586426 12.81911277770996 25.39102363586426 Z"/><path class="f" d="M 12.81911277770996 25.14102363586426 C 16.11009216308594 25.14102363586426 19.20438194274902 23.85894203186035 21.53200340270996 21.53096199035645 C 23.85931205749512 19.20328330993652 25.14102363586426 16.10935211181641 25.14102363586426 12.81911277770996 C 25.14102363586426 6.026332855224609 19.61343193054199 0.5000027418136597 12.81911277770996 0.5000027418136597 C 9.528872489929199 0.5000027418136597 6.435442924499512 1.78121280670166 4.108672618865967 4.107622623443604 C 1.781582713127136 6.434332847595215 0.5000027418136597 9.528132438659668 0.5000027418136597 12.81911277770996 C 0.5000027418136597 16.11029243469238 1.781602740287781 19.20460319519043 4.108722686767578 21.53205299377441 C 6.435662746429443 23.85933303833008 9.529072761535645 25.14102363586426 12.81911277770996 25.14102363586426 M 12.81911277770996 25.64102363586426 C 5.740672588348389 25.64102363586426 2.771606432361295e-06 19.90049362182617 2.771606432361295e-06 12.81911277770996 C 2.771606432361295e-06 5.737732887268066 5.740672588348389 2.771606432361295e-06 12.81911277770996 2.771606432361295e-06 C 19.89756202697754 2.771606432361295e-06 25.64102363586426 5.740672588348389 25.64102363586426 12.81911277770996 C 25.64102363586426 19.89756202697754 19.90049362182617 25.64102363586426 12.81911277770996 25.64102363586426 Z"/></g><path class="c" d="M0,0H11.834V8.876H0Z" transform="translate(230.083 297.069)"/><path class="d" d="M1.644,3.482H0l1.315-1.3L3.353,0l.789.819-1.249,1.3h8.941v1.3Z" transform="translate(230.083 297.069)"/><path class="d" d="M10.256,0h1.578L10.519,1.3,8.481,3.414l-.789-.819L8.942,1.3H0V0Z" transform="translate(230.083 302.531)"/></g></svg>