<svg xmlns="http://www.w3.org/2000/svg" width="22" height="22" viewBox="0 0 22 22"><defs><style>.a{fill:#838b9c;}</style></defs><g transform="translate(4261 3172)"><path class="a" d="M4525.266,4027v0l-3.69-4H4535.5v-14h-2.881l-1.434-1.434H4537v16.867h-11.734V4027Zm-4.819-2.566H4515v-16.867h11V4005l4,4h-13.5v14h2.514l1.431,1.432Z" transform="translate(-8776 -7177)"/><path class="a" d="M5.417,4.167H2.083a.394.394,0,0,1-.417-.417.394.394,0,0,1,.417-.417H6.667V1.667H4.583V0H2.917V1.667H2.083A2.063,2.063,0,0,0,0,3.75,2.063,2.063,0,0,0,2.083,5.833H5.417a.417.417,0,1,1,0,.833H.833V8.333H2.917V10H4.583V8.333h.833a2.083,2.083,0,1,0,0-4.167Z" transform="translate(-4253.25 -3166)"/></g></svg>