<svg xmlns="http://www.w3.org/2000/svg" width="24" height="24" viewBox="0 0 24 24"><defs><style>.a{fill:#defff3;}.b{fill:#4936DF;}</style></defs><g transform="translate(-336 -83)"><circle class="a" cx="12" cy="12" r="12" transform="translate(336 83)"/><g transform="translate(255.667 2.667)"><path class="b" d="M92.333,99.333a7,7,0,1,1,7-7A7,7,0,0,1,92.333,99.333Zm0-12.95a5.95,5.95,0,1,0,5.95,5.95,5.95,5.95,0,0,0-5.95-5.95Z"/><path class="b" d="M470.036,298.667a.7.7,0,1,1-.7.7A.7.7,0,0,1,470.036,298.667Zm0,2.107a.527.527,0,0,1,.527.527v3.863a.527.527,0,1,1-1.054,0V301.3A.527.527,0,0,1,470.036,300.774Z" transform="translate(-377.703 -209.846)"/></g></g></svg>