<svg xmlns="http://www.w3.org/2000/svg" width="40" height="40" viewBox="0 0 40 40"><defs><style>.a{fill:#138a5d;}.b{fill:#fff;}</style></defs><g transform="translate(-132 -206)"><circle class="a" cx="20" cy="20" r="20" transform="translate(132 206)"/><path class="b" d="M-5305.164,3874.667h0a1.751,1.751,0,0,1-1.26-.544l-8.25-8.662a1.8,1.8,0,0,1-.14-2.322l4.281-5.761a1.755,1.755,0,0,1,1.4-.71h7.925a1.758,1.758,0,0,1,1.4.707l4.279,5.741a1.8,1.8,0,0,1-.137,2.324l-8.231,8.68A1.75,1.75,0,0,1-5305.164,3874.667Zm-4.059-12.371a.662.662,0,0,0-.49.218.659.659,0,0,0,.025.911l4.046,4.046.049.045a.662.662,0,0,0,.417.148.656.656,0,0,0,.468-.193l4.046-4.046.044-.051a.66.66,0,0,0-.071-.906.659.659,0,0,0-.442-.17.653.653,0,0,0-.465.193l-3.579,3.579-3.58-3.579-.049-.045A.663.663,0,0,0-5309.223,3862.3Z" transform="translate(5457.178 -3639.667)"/></g></svg>