<svg xmlns="http://www.w3.org/2000/svg" width="114" height="122" viewBox="0 0 114 122"><defs><style>.a,.f{fill:#138a5d;}.b{fill:#3cbc8c;}.c,.g{fill:#3e3a39;}.d{fill:#fcee21;}.e{fill:#fff;}.f,.g{font-size:36px;font-family:PingFangSC-Bold, PingFang SC;font-weight:700;}</style></defs><g transform="translate(-133 -333)"><path class="a" d="M112.862,471.425a4.162,4.162,0,1,1,4.162-4.162A4.17,4.17,0,0,1,112.862,471.425Zm0-6.278a2.115,2.115,0,1,0,2.115,2.115A2.117,2.117,0,0,0,112.862,465.147Z" transform="translate(24.3 -75.77)"/><path class="b" d="M136.314,288h-1.822v-1.815a.89.89,0,0,0-1.781,0V288H130.89a.887.887,0,1,0,0,1.774h1.822v1.815a.89.89,0,0,0,1.781,0v-1.815h1.822a.887.887,0,1,0,0-1.774Zm100.36.15h-1.822v-1.815a.89.89,0,0,0-1.781,0v1.815h-1.822a.887.887,0,1,0,0,1.774h1.822v1.815a.89.89,0,0,0,1.781,0v-1.815h1.822a.887.887,0,1,0,0-1.774Z" transform="translate(5.907 77.796)"/><path class="a" d="M822.3,420.339h-2.115v-2.115a1.024,1.024,0,1,0-2.047,0v2.115h-2.115a1.024,1.024,0,1,0,0,2.047h2.115V424.5a1.024,1.024,0,0,0,2.047,0v-2.115H822.3a1.024,1.024,0,0,0,0-2.047Z" transform="translate(-585.216 -36.126)"/><path class="a" d="M268.028,227.628m-1.528,0a1.528,1.528,0,1,0,1.528-1.528A1.528,1.528,0,0,0,266.5,227.628Z" transform="translate(-111.889 128.927)"/><path class="a" d="M767.247,283.647m-2.047,0a2.047,2.047,0,1,0,2.047-2.047A2.047,2.047,0,0,0,765.2,283.647Z" transform="translate(-542.298 80.992)"/><path class="b" d="M672.147,135.547m-2.047,0a2.047,2.047,0,1,0,2.047-2.047A2.047,2.047,0,0,0,670.1,135.547Z" transform="translate(-460.211 208.917)"/><path class="a" d="M475.662,102.725a4.162,4.162,0,1,1,4.162-4.162A4.17,4.17,0,0,1,475.662,102.725Zm0-6.278a2.115,2.115,0,1,0,2.115,2.115A2.117,2.117,0,0,0,475.662,96.447Z" transform="translate(-288.804 242.68)"/><path class="b" d="M307.806,66.028a.577.577,0,0,0-.805,0,.56.56,0,0,0,0,.792l1.815,1.815a.546.546,0,0,0,.4.164.525.525,0,0,0,.4-.164.577.577,0,0,0,0-.805Zm4.8,4.8a.546.546,0,0,0-.4-.164.525.525,0,0,0-.4.164.577.577,0,0,0,0,.805l1.815,1.815a.547.547,0,0,0,.4.164.525.525,0,0,0,.4-.164.547.547,0,0,0,.164-.4.525.525,0,0,0-.164-.4Zm-.4-2.006a.525.525,0,0,0,.4-.164l1.815-1.815a.547.547,0,0,0,.164-.4.525.525,0,0,0-.164-.4.577.577,0,0,0-.805,0L311.8,67.871a.577.577,0,0,0,0,.805A.714.714,0,0,0,312.214,68.826Zm-3.384,2.006-1.815,1.815a.56.56,0,0,0,.4.955.525.525,0,0,0,.4-.164l1.815-1.815a.56.56,0,1,0-.792-.792Zm.355-1.092a.574.574,0,0,0-.56-.573H306.06a.566.566,0,0,0,0,1.133h2.566A.553.553,0,0,0,309.185,69.74Zm6.209-.56h-2.566a.577.577,0,0,0-.573.573.565.565,0,0,0,.573.56h2.566a.574.574,0,0,0,.573-.56A.568.568,0,0,0,315.394,69.181ZM310.713,64.5a.574.574,0,0,0-.573.56v2.566a.566.566,0,0,0,1.133,0V65.06A.553.553,0,0,0,310.713,64.5Zm0,6.783a.577.577,0,0,0-.573.573v2.566a.577.577,0,0,0,.573.573.565.565,0,0,0,.56-.573V71.856A.557.557,0,0,0,310.713,71.283Z" transform="translate(-145.541 268.5)"/><path class="c" d="M232.243,940.157h-3.671a1.528,1.528,0,1,1,0-3.057h3.671a1.528,1.528,0,1,1,0,3.057Zm-98.011,0h-4.7a1.528,1.528,0,1,1,0-3.057h4.7a1.528,1.528,0,1,1,0,3.057Zm89.805,0H139.411a1.528,1.528,0,1,1,0-3.057h84.627a1.528,1.528,0,1,1,0,3.057Z" transform="translate(7.634 -485.157)"/><path class="b" d="M317.778,452.263c1.583-14.138-12.3-34.636-18.56-43.083a31.78,31.78,0,0,0-8.625-2.88,34.444,34.444,0,0,1-10.235,0c-19.106,3.412-33.858,25.288-33.858,44.189,0,20.552,17.454,29.778,38.976,29.778C296.148,475.763,315.745,470.454,317.778,452.263Z" transform="translate(-94.521 -26.795)"/><path class="b" d="M401.989,247.41a30.219,30.219,0,0,0,7.083-1.9c2.62-2.934,2.661-12.009,2.115-19.925a30.7,30.7,0,0,0-14.3-3.289c-11.818,0-21.385,5.7-21.385,12.746,0,5.991,6.933,11,16.281,12.364a29.022,29.022,0,0,1,5.118-.478A30.318,30.318,0,0,1,401.989,247.41Z" transform="translate(-205.906 132.204)"/><path class="a" d="M561.231,459.9c0-15.94-13.811-37.2-30.474-42.7,6.087,8.325,22.982,23.787,21.7,41.132-1.351,18.26-21.1,25.861-31.757,30.351C542.221,488.683,561.231,480.454,561.231,459.9Z" transform="translate(-331.079 -36.208)"/><path class="a" d="M565.8,252.682c8.393,2.184,16.786-1.9,16.786-6.237,0-3.753-4.858-8.611-9.2-10.945C576.608,241.668,576.881,250.157,565.8,252.682Z" transform="translate(-370.167 120.805)"/><path class="d" d="M404.514,380.2v1.351a2.8,2.8,0,0,1-2.8,2.8H359.4a2.8,2.8,0,0,1-2.8-2.8V380.2a2.8,2.8,0,0,1,2.8-2.8h42.319A2.81,2.81,0,0,1,404.514,380.2Z" transform="translate(-189.568 -1.751)"/><path class="c" d="M248.235,463.834c-26.365,0-42.735-12.118-42.735-31.634a40.352,40.352,0,0,1,5.991-22.013,1.538,1.538,0,0,1,2.646,1.569,36.983,36.983,0,0,0-5.566,20.443c.014,17.891,14.835,28.563,39.664,28.563s39.651-10.686,39.651-28.563c0-19.761-17.686-43.616-39.651-43.616-10.283,0-18.07,3.507-25.268,11.354a1.546,1.546,0,0,1-2.18.1,1.528,1.528,0,0,1-.1-2.17c7.719-8.434,16.48-12.364,27.544-12.364,23.678,0,42.735,25.547,42.735,46.686C290.984,451.715,274.6,463.834,248.235,463.834Z" transform="translate(-59.29 -8.833)"/><path class="c" d="M365.046,231.85c-13.483,0-24.046-6.332-24.046-14.425S351.576,203,365.046,203s24.046,6.332,24.046,14.425S378.529,231.85,365.046,231.85Zm0-25.779c-11.368,0-20.975,5.2-20.975,11.354s9.607,11.354,20.975,11.354,20.975-5.2,20.975-11.354S376.414,206.071,365.046,206.071Z" transform="translate(-176.109 148.873)"/><path class="e" d="M383,371.468v6.278a.367.367,0,0,1-.368.368H332.968a.367.367,0,0,1-.368-.368v-6.278a.367.367,0,0,1,.368-.368H382.63A.367.367,0,0,1,383,371.468Z" transform="translate(-168.855 3.691)"/><path class="c" d="M374.282,369.9H321.973a.577.577,0,0,1-.573-.573v-8.952a.577.577,0,0,1,.573-.573H374.3a.577.577,0,0,1,.573.573v8.939A.583.583,0,0,1,374.282,369.9Zm-49.825-6.864v3.616a.166.166,0,0,0,.164.164h47a.166.166,0,0,0,.164-.164v-3.616a.166.166,0,0,0-.164-.164h-47A.176.176,0,0,0,324.457,363.034Z" transform="translate(-159.184 13.449)"/><path class="e" d="M398.332,268.413a1.459,1.459,0,0,1-.341-.041,1.526,1.526,0,0,1-1.146-1.842,5.578,5.578,0,0,1,3.794-4.312,1.534,1.534,0,0,1,.751,2.975,2.534,2.534,0,0,0-1.556,2.02A1.567,1.567,0,0,1,398.332,268.413Z" transform="translate(-224.344 97.771)"/><path class="e" d="M273.858,740.474a1.523,1.523,0,0,1-1.16-.532c-3.3-3.794-3.112-11.532-3.112-11.859a1.536,1.536,0,0,1,3.071.082c-.055,1.9.273,7.369,2.361,9.758a1.536,1.536,0,0,1-.15,2.17A1.507,1.507,0,0,1,273.858,740.474Z" transform="translate(-114.549 -303.378)"/><path class="e" d="M267.91,670.122h-.136a1.543,1.543,0,0,1-1.406-1.665l.232-2.784a1.541,1.541,0,1,1,3.071.259l-.232,2.784A1.541,1.541,0,0,1,267.91,670.122Z" transform="translate(-111.77 -249.512)"/><path class="c" d="M271.19,511.366a1.657,1.657,0,0,1-.819-.232,1.53,1.53,0,0,1-.478-2.115l1.665-2.647a1.533,1.533,0,1,1,2.593,1.638l-1.665,2.648A1.568,1.568,0,0,1,271.19,511.366Z" transform="translate(-114.611 -112.523)"/><text class="f" transform="translate(179.74 428.5)"><tspan x="0" y="0">$</tspan></text><text class="g" transform="translate(178.232 428)"><tspan x="0" y="0">$</tspan></text><path class="e" d="M556.023,627.523m-17.423,0A17.423,17.423,0,1,0,556.023,610.1,17.423,17.423,0,0,0,538.6,627.523Z" transform="translate(-328.73 -194.317)"/><path class="c" d="M530.535,615.769a20.535,20.535,0,1,1,20.521-20.521A20.558,20.558,0,0,1,530.535,615.769Zm0-38.287A17.766,17.766,0,1,0,548.3,595.248a17.779,17.779,0,0,0-17.766-17.766Z" transform="translate(-304.056 -163.77)"/><path class="c" d="M584.717,684.761a1.331,1.331,0,0,1-.918-.356l-8.883-7.978a1.379,1.379,0,1,1,1.837-2.056l7.772,6.977,10.61-13.873a1.379,1.379,0,0,1,2.193,1.672l-11.515,15.065a1.373,1.373,0,0,1-.973.535A.34.34,0,0,1,584.717,684.761Z" transform="translate(-359.646 -243.357)"/></g></svg>