<svg xmlns="http://www.w3.org/2000/svg" xmlns:xlink="http://www.w3.org/1999/xlink" width="14" height="14" viewBox="0 0 14 14"><defs><style>.a{fill:#4936DF;}.b{clip-path:url(#a);}</style><clipPath id="a"><rect class="a" width="14" height="14" transform="translate(16 522)"/></clipPath></defs><g class="b" transform="translate(-16 -522)"><path class="a" d="M12.28,7.04H1.012A1,1,0,0,1,0,6.052V6a1,1,0,0,1,1.012-.988H12.3L8.929,1.685A.97.97,0,0,1,8.929.3L8.937.291a1.023,1.023,0,0,1,1.419-.01l.01.01L15.854,5.7a.486.486,0,0,1,0,.695L14.78,7.448l-4.328,4.259a1.033,1.033,0,0,1-1.432.008l-.008-.008-.033-.032a.968.968,0,0,1,0-1.389Z" transform="translate(13.101 530.414) rotate(-45)"/></g></svg>