<svg xmlns="http://www.w3.org/2000/svg" width="24" height="24" viewBox="0 0 24 24"><defs><style>.a{fill:#defff3;}.b{fill:#4936DF;}</style></defs><g transform="translate(-336 -19)"><circle class="a" cx="12" cy="12" r="12" transform="translate(336 19)"/><g transform="translate(310 18.24)"><path class="b" d="M238.87,15.673H233.2a.469.469,0,0,1,0-.928h5.67a.469.469,0,0,1,0,.928m0,2.654H233.2a.469.469,0,0,1,0-.928h5.67a.469.469,0,0,1,0,.928m0,2.653H233.2a.469.469,0,0,1,0-.928h5.67a.47.47,0,0,1,0,.929m-1.535-9.812h-2.6a.469.469,0,0,1,0-.928h2.6a.469.469,0,0,1,0,.928" transform="translate(-198.035 -4.418)"/><path class="b" d="M33.334,6.689a.5.5,0,0,0-.48.521v11.1a.5.5,0,0,0,.48.522h9.332a.5.5,0,0,0,.479-.522V7.209a.5.5,0,0,0-.479-.521H41.421a1.679,1.679,0,0,1-1.61,1.6H36.189a1.677,1.677,0,0,1-1.611-1.6ZM42.666,19.76H33.334A1.4,1.4,0,0,1,32,18.311V7.209A1.4,1.4,0,0,1,33.334,5.76h2.092v.769a.8.8,0,0,0,.764.828h3.621a.8.8,0,0,0,.763-.828V5.76h2.092A1.4,1.4,0,0,1,44,7.209v11.1A1.4,1.4,0,0,1,42.666,19.76Z" transform="translate(0)"/></g></g></svg>