<svg xmlns="http://www.w3.org/2000/svg" width="24" height="24" viewBox="0 0 24 24"><defs><style>.a{fill:#defff3;}.b{fill:none;}.c,.d{stroke:none;}.d{fill:#4936DF;}</style></defs><g transform="translate(-268 -83)"><circle class="a" cx="12" cy="12" r="12" transform="translate(268 83)"/><g class="b" transform="translate(1414 -393)"><path class="c" d="M-1131,494.5V492h-1.5a.5.5,0,0,1-.5-.5v-8a.5.5,0,0,1,.5-.5h1.5v-1.5a.5.5,0,0,1,.5-.5.5.5,0,0,1,.5.5V483h1.5a.5.5,0,0,1,.5.5v8a.5.5,0,0,1-.5.5h-1.5v2.5a.5.5,0,0,1-.5.5A.5.5,0,0,1-1131,494.5Zm-7-.5v-1.5h-1.5a.5.5,0,0,1-.5-.5v-6a.5.5,0,0,1,.5-.5h1.5V482a.5.5,0,0,1,.5-.5.5.5,0,0,1,.5.5v3.5h1.5a.5.5,0,0,1,.5.5v6a.5.5,0,0,1-.5.5h-1.5V494a.5.5,0,0,1-.5.5A.5.5,0,0,1-1138,494Z"/><path class="d" d="M -1135.999877929688 491.5007019042969 L -1135.999877929688 486.5005187988281 L -1139.000366210938 486.5005187988281 L -1139.000366210938 491.5007019042969 L -1135.999877929688 491.5007019042969 M -1128.999755859375 491.0003051757812 L -1128.999755859375 484.0003051757812 L -1132.000122070312 484.0003051757812 L -1132.000122070312 491.0003051757812 L -1128.999755859375 491.0003051757812 M -1130.499877929688 495 C -1130.776245117188 495 -1130.999389648438 494.7759094238281 -1130.999389648438 494.4996032714844 L -1130.999389648438 492.0003051757812 L -1132.499755859375 492.0003051757812 C -1132.776000976562 492.0003051757812 -1133.000122070312 491.7762145996094 -1133.000122070312 491.4999084472656 L -1133.000122070312 483.4998168945312 C -1133.000122070312 483.2235107421875 -1132.776000976562 483.0003051757812 -1132.499755859375 483.0003051757812 L -1130.999389648438 483.0003051757812 L -1130.999389648438 481.5 C -1130.999389648438 481.2237243652344 -1130.776245117188 480.9996032714844 -1130.499877929688 480.9996032714844 C -1130.2236328125 480.9996032714844 -1129.99951171875 481.2237243652344 -1129.99951171875 481.5 L -1129.99951171875 483.0003051757812 L -1128.500122070312 483.0003051757812 C -1128.223876953125 483.0003051757812 -1127.999755859375 483.2235107421875 -1127.999755859375 483.4998168945312 L -1127.999755859375 491.4999084472656 C -1127.999755859375 491.7762145996094 -1128.223876953125 492.0003051757812 -1128.500122070312 492.0003051757812 L -1129.99951171875 492.0003051757812 L -1129.99951171875 494.4996032714844 C -1129.99951171875 494.7759094238281 -1130.2236328125 495 -1130.499877929688 495 Z M -1137.500122070312 494.5005187988281 C -1137.7763671875 494.5005187988281 -1137.999633789062 494.2763977050781 -1137.999633789062 494.0001220703125 L -1137.999633789062 492.5007019042969 L -1139.499877929688 492.5007019042969 C -1139.776245117188 492.5007019042969 -1140.000366210938 492.276611328125 -1140.000366210938 492.0003051757812 L -1140.000366210938 486 C -1140.000366210938 485.724609375 -1139.776245117188 485.5005187988281 -1139.499877929688 485.5005187988281 L -1137.999633789062 485.5005187988281 L -1137.999633789062 482.0003967285156 C -1137.999633789062 481.72412109375 -1137.7763671875 481.5 -1137.500122070312 481.5 C -1137.223876953125 481.5 -1136.999755859375 481.72412109375 -1136.999755859375 482.0003967285156 L -1136.999755859375 485.5005187988281 L -1135.500366210938 485.5005187988281 C -1135.223999023438 485.5005187988281 -1134.999877929688 485.724609375 -1134.999877929688 486 L -1134.999877929688 492.0003051757812 C -1134.999877929688 492.276611328125 -1135.223999023438 492.5007019042969 -1135.500366210938 492.5007019042969 L -1136.999755859375 492.5007019042969 L -1136.999755859375 494.0001220703125 C -1136.999755859375 494.2763977050781 -1137.223876953125 494.5005187988281 -1137.500122070312 494.5005187988281 Z"/></g></g></svg>