<svg xmlns="http://www.w3.org/2000/svg" width="24" height="24" viewBox="0 0 24 24"><defs><style>.a{fill:#defff3;}.b{fill:#3cbc8c;}</style></defs><g transform="translate(-248 -17)"><circle class="a" cx="12" cy="12" r="12" transform="translate(248 17)"/><g transform="translate(253 22)"><g transform="translate(0 0)"><path class="b" d="M7.576,14H7.1a.657.657,0,0,1-.187-.027,2.306,2.306,0,0,1-1.5-.719A2.24,2.24,0,0,1,4.8,11.715a2.3,2.3,0,0,1,4.6,0,2.239,2.239,0,0,1-.055.489A3.246,3.246,0,0,0,10.894,9.44V4.558A3.3,3.3,0,0,0,7.576,1.287H6.451A3.3,3.3,0,0,0,3.133,4.558V8.972a.646.646,0,0,1-.188.453,1.185,1.185,0,0,1-.878.256H2.026a2.326,2.326,0,0,1-.49-.057,2.16,2.16,0,0,1-.882-.409A1.64,1.64,0,0,1,0,7.936V5.972A1.639,1.639,0,0,1,.654,4.693a2.234,2.234,0,0,1,1.182-.455A4.461,4.461,0,0,1,2.19,2.787a4.549,4.549,0,0,1,.992-1.449A4.648,4.648,0,0,1,6.45,0H7.574a4.646,4.646,0,0,1,3.267,1.338,4.561,4.561,0,0,1,.992,1.449,4.424,4.424,0,0,1,.354,1.453,2.191,2.191,0,0,1,1.155.451A1.651,1.651,0,0,1,14,5.969V7.933a1.639,1.639,0,0,1-.654,1.279,2.21,2.21,0,0,1-1.15.451,4.463,4.463,0,0,1-.361,1.549,4.531,4.531,0,0,1-.992,1.448A4.643,4.643,0,0,1,7.576,14ZM7,10.666a1,1,0,1,0,1,1A1,1,0,0,0,7,10.666Zm5-5.333V8c.38-.063.667-.235.667-.4V5.735C12.667,5.569,12.38,5.4,12,5.333Zm-10,0c-.38.059-.667.233-.667.405V7.595c0,.174.287.348.667.405Z"/></g></g></g></svg>