<svg xmlns="http://www.w3.org/2000/svg" width="24" height="24" viewBox="0 0 24 24">
  <g id="duoyuyan" transform="translate(-267 -399)">
    <g id="椭圆_223" data-name="椭圆 223" transform="translate(267 399)" fill="none" stroke="#838b9c" stroke-width="1.4">
      <circle cx="12" cy="12" r="12" stroke="none"/>
      <circle cx="12" cy="12" r="11.3" fill="none"/>
    </g>
    <path id="路径_3229" data-name="路径 3229" d="M70.9,66.628l.238,1.048a1.779,1.779,0,0,1-.808.049,1.493,1.493,0,0,0-.428-.1l-.379.548a4.931,4.931,0,0,0-.192.548.981.981,0,0,0,.095.5s.666.049.666-.152a.443.443,0,0,0-.095-.3l-.1-.348a2.6,2.6,0,0,1,1.664-.275c1.141.1.689,1.073,1.165,1.27s-.509,1.735-.593,1.3c.261,1.347-.343-.259-.974,1.2a1.122,1.122,0,0,1-.976.548s.144.249.286.548-.048,1-.048,1.2-.854-.348-.95-.848-.38-.347-.57-.3-.808.2-.9-.049-.688.5-.927.647-.4.548-.022.348.879.053.784.45-.048-.249,0,0-.167.8-.072,1.147,1,.049,1.283-.1,1.094-.3,1.188.1,1.831.351,2.164.45a4.021,4.021,0,0,1,1.521.8c.38.4-1.26,1.1-1.307,1.347a8.086,8.086,0,0,1-.523,1.246,1.831,1.831,0,0,1-.522.749,1.67,1.67,0,0,0-.381.548l-.047.848s.238.548.38.8-.285,1.5-.285,1.5c-.412-.083-.7-.2-.84-.6s-.348-.3-.3-.749-.666-1-.808-1.246a2.092,2.092,0,0,1-.333-.848c0-.25-.523-.6-.523-.6a5.359,5.359,0,0,1-1.092-.65A5.354,5.354,0,0,1,67,77.8a5.807,5.807,0,0,1,.143-1.246s.38-.3.143-.548a1.881,1.881,0,0,1-.285-.9l-.86.147s-.738-.537-.784-.783a8.877,8.877,0,0,1,0-1.569c.046-.249,0-1.32,0-1.569C67.136,66.767,70.9,66.628,70.9,66.628Zm7.8,5.491a2.787,2.787,0,0,0-2.353,1.569c-.785,1.569-2.353,0-2.353,0s2.353,3.922,3.923,2.355,1.569-2.355,1.569-3.138A.77.77,0,0,0,78.7,72.119Z" transform="translate(206.283 336.114)" fill="#4936DF"/>
  </g>
</svg>
