<svg xmlns="http://www.w3.org/2000/svg" xmlns:xlink="http://www.w3.org/1999/xlink" width="21" height="21" viewBox="0 0 21 21"><defs><style>.a{fill:#fff;stroke:#707070;}.b{clip-path:url(#a);}.c{fill:#4936DF;}.d{fill:#a0a5af;}</style><clipPath id="a"><rect class="a" width="21" height="21" transform="translate(44 306)"/></clipPath></defs><g class="b" transform="translate(-44 -306)"><g transform="translate(-1.5 -125)"><path class="c" d="M6.5,13A6.5,6.5,0,1,1,13,6.5,6.507,6.507,0,0,1,6.5,13Zm0-9.4h0L3.672,6.429,6.5,9.257,9.328,6.429,6.5,3.6Z" transform="translate(53 439)"/><path class="d" d="M4.5,9A4.5,4.5,0,1,1,9,4.5,4.505,4.505,0,0,1,4.5,9Zm.014-5.914h0L3.1,4.5,4.514,5.914,5.928,4.5,4.514,3.086Z" transform="translate(46 431)"/><circle class="c" cx="3.5" cy="3.5" r="3.5" transform="translate(56 431)"/><circle class="d" cx="3.5" cy="3.5" r="3.5" transform="translate(46 445)"/><rect class="c" width="2" height="2" transform="translate(51.414 441) rotate(45)"/><rect class="d" width="2" height="2" transform="translate(64.414 436.172) rotate(45)"/></g></g></svg>