<svg xmlns="http://www.w3.org/2000/svg" xmlns:xlink="http://www.w3.org/1999/xlink" width="21" height="21" viewBox="0 0 21 21"><defs><style>.a{fill:#fff;}.b{clip-path:url(#a);}.c{fill:#4936DF;}.d{fill:#a0a5af;}</style><clipPath id="a"><rect class="a" width="21" height="21" transform="translate(293 372)"/></clipPath></defs><g class="b" transform="translate(-293 -372)"><g transform="translate(21)"><path class="c" d="M17,21H2.007A2,2,0,0,0,4,19V0H19V19A2,2,0,0,1,17,21Z" transform="translate(273 372)"/><path class="d" d="M0,0H4A0,0,0,0,1,4,0V9a2,2,0,0,1-2,2H2A2,2,0,0,1,0,9V0A0,0,0,0,1,0,0Z" transform="translate(273 382)"/><rect class="a" width="9" height="2" transform="translate(280 386)"/><path class="a" d="M0,11.314l5.3-5.3L2.829,3.535l6.718-.353L9.193,9.9,6.718,7.424l-5.3,5.3Z" transform="translate(279.979 371.866)"/></g></g></svg>