<svg xmlns="http://www.w3.org/2000/svg" xmlns:xlink="http://www.w3.org/1999/xlink" width="21" height="21" viewBox="0 0 21 21"><defs><style>.a{fill:#fff;}.b{clip-path:url(#a);}.c{fill:#4936DF;}.d{fill:#a0a5af;}</style><clipPath id="a"><rect class="a" width="21" height="21" transform="translate(238 306)"/></clipPath></defs><g class="b" transform="translate(-238 -306)"><g transform="translate(136.5 6.98)"><path class="c" d="M6.5,13A6.5,6.5,0,1,1,13,6.5,6.507,6.507,0,0,1,6.5,13ZM6.48,3.873h0L3.853,6.5,6.48,9.126,9.107,6.5,6.48,3.873Z" transform="translate(103 305.02)"/><rect class="d" width="20" height="6" transform="translate(102 314.02)"/><path class="c" d="M4.5,9A4.5,4.5,0,1,1,9,4.5,4.505,4.505,0,0,1,4.5,9ZM4.486,2.682h0L2.668,4.5,4.486,6.318,6.3,4.5,4.486,2.682Z" transform="translate(113 299.02)"/></g></g></svg>