<svg xmlns="http://www.w3.org/2000/svg" xmlns:xlink="http://www.w3.org/1999/xlink" width="21" height="21" viewBox="0 0 21 21"><defs><style>.a{fill:#fff;}.b{clip-path:url(#a);}.c{fill:#4936DF;}.d{fill:#a0a5af;}</style><clipPath id="a"><rect class="a" width="21" height="21" transform="translate(323 378)"/></clipPath></defs><g class="b" transform="translate(-323 -378)"><g transform="translate(0.3)"><path class="c" d="M93.856,109.345l-1.975-1.977a.249.249,0,0,1,0-.351l2.76-2.762a.249.249,0,0,1,.351,0l2.76,2.762a.249.249,0,0,1,0,.351l-1.975,1.977h6.939a8.187,8.187,0,1,0-16.084-2.152,8.128,8.128,0,0,0,.286,2.152Z" transform="translate(238.35 279)"/><path class="d" d="M104.2,110.15H85.431a2.176,2.176,0,0,0,0,3.34l7.5,5.818a2.912,2.912,0,0,0,3.767,0l7.5-5.818A2.179,2.179,0,0,0,104.2,110.15Zm-4.33,2.943H89.761a.525.525,0,1,1,0-1.043H99.869a.525.525,0,1,1,0,1.043Z" transform="translate(238.35 279)"/></g></g></svg>