<svg xmlns="http://www.w3.org/2000/svg" width="40" height="40" viewBox="0 0 40 40"><defs><style>.a{fill:#138a5d;}.b,.c{fill:#fff;}.c{opacity:0.2;}</style></defs><g transform="translate(-224 -206)"><circle class="a" cx="20" cy="20" r="20" transform="translate(224 206)"/><g transform="translate(87.749 112.908)"><path class="b" d="M161.031,108.652a1.545,1.545,0,0,1-1.177.517h-6.7a1.6,1.6,0,0,1-1.193-.532,4.891,4.891,0,0,1-1.435-2.6c0-1.856,1.592-1.556,2.724-1.571.97-.01,1.794-1.61,2.532-1.044,1.026.793,1,1.615,1.652,1.531.874-.118.111-1.531,2.365-1.531s3.027.881,2.729,2.615a5.994,5.994,0,0,1-1.5,2.62Zm-9.46,2.122a1.935,1.935,0,0,1,1.375-.556h7.15a1.912,1.912,0,0,1,1.415.606c2.077,2.255,3.739,5.392,3.739,7.78a5.129,5.129,0,0,1-4.851,4.688h-8.3a5.144,5.144,0,0,1-4.851-4.688C147.251,116.255,149.323,113.03,151.572,110.774Zm5.134,9.622a3.626,3.626,0,1,0-3.75-3.624A3.686,3.686,0,0,0,156.706,120.4Z" transform="translate(0 -0.2)"/><path class="c" d="M291.435,106.28c.02-.084.046-.168.061-.246.3-1.734-.486-2.616-2.762-2.616s-1.509,1.414-2.394,1.532c-.66.089-.634-.739-1.673-1.532-.747-.567-1.581,1.035-2.563,1.045-1.146.015-2.757-.286-2.757,1.572a1.385,1.385,0,0,0,.026.246h12.062Z" transform="translate(-128.918 -0.199)"/><path class="c" d="M290.745,107.684a4.5,4.5,0,0,0,.752-1.651c.3-1.734-.486-2.616-2.762-2.616s-1.509,1.414-2.394,1.532c-.66.089-.634-.739-1.673-1.532-.747-.567-1.581,1.035-2.563,1.045-1.146.015-2.757-.286-2.757,1.572a3.234,3.234,0,0,0,.691,1.651h10.707Z" transform="translate(-128.918 -0.199)"/><path class="c" d="M289.036,110.022H281.8a2,2,0,0,0-1.391.557c-.353.35-.7.729-1.038,1.118h12.011c-.292-.37-.593-.729-.911-1.069A1.946,1.946,0,0,0,289.036,110.022Zm-7.029-1.049h6.783a1.58,1.58,0,0,0,1.192-.517,6,6,0,0,0,1.514-2.626c.3-1.734-.486-2.616-2.762-2.616s-1.509,1.414-2.394,1.532c-.66.089-.634-.739-1.673-1.532-.747-.567-1.581,1.035-2.563,1.045-1.146.015-2.757-.286-2.757,1.572a4.877,4.877,0,0,0,1.453,2.606,1.614,1.614,0,0,0,1.207.537Z" transform="translate(-128.918 0)"/><path class="c" d="M228.27,110.022h-7.189a1.98,1.98,0,0,0-1.382.557,20.168,20.168,0,0,0-2.611,3.222h5.35a3.874,3.874,0,0,1,4.837,0h4.72a16.813,16.813,0,0,0-2.306-3.173A1.907,1.907,0,0,0,228.27,110.022Zm-6.98-1.049h6.737a1.564,1.564,0,0,0,1.184-.517,6.006,6.006,0,0,0,1.5-2.626c.3-1.734-.483-2.616-2.743-2.616s-1.5,1.414-2.378,1.532c-.655.089-.63-.739-1.661-1.532-.742-.567-1.57,1.035-2.545,1.045-1.138.015-2.738-.286-2.738,1.572a4.887,4.887,0,0,0,1.443,2.606A1.6,1.6,0,0,0,221.29,108.973Z" transform="translate(-68.157 0)"/><path class="c" d="M161.951,109.177h6.7a1.554,1.554,0,0,0,1.178-.517,6.013,6.013,0,0,0,1.5-2.626c.3-1.734-.48-2.616-2.73-2.616s-1.492,1.414-2.366,1.532c-.652.089-.627-.739-1.653-1.532-.738-.567-1.562,1.035-2.533,1.045-1.133.015-2.725-.286-2.725,1.572a4.894,4.894,0,0,0,1.436,2.606A1.587,1.587,0,0,0,161.951,109.177Zm6.947,1.05h-7.16a1.965,1.965,0,0,0-1.375.557,16.392,16.392,0,0,0-4.1,6.381h5.5a3.123,3.123,0,0,1-.02-.379,3.754,3.754,0,0,1,7.5,0,3.129,3.129,0,0,1-.02.379h4.647a15.134,15.134,0,0,0-3.565-6.336,1.924,1.924,0,0,0-1.411-.6Z" transform="translate(-8.795 -0.199)"/><path class="b" d="M454.7,589.972l1.434,1.419a.5.5,0,0,1,0,.71l-1.434,1.419a.505.505,0,0,1-.714,0l-1.434-1.419a.5.5,0,0,1,0-.71l1.434-1.419A.506.506,0,0,1,454.7,589.972Z" transform="translate(-297.569 -475.031)"/><path class="c" d="M506.382,590.287l-.315-.315a.505.505,0,0,0-.714,0l-.315.315Z" transform="translate(-348.939 -475.029)"/><path class="c" d="M485.328,590.814l-.847-.843a.506.506,0,0,0-.714,0l-.847.843Z" transform="translate(-327.352 -475.03)"/><path class="c" d="M457.056,591.633a.482.482,0,0,0-.128-.241l-1.429-1.419a.505.505,0,0,0-.714,0l-1.434,1.419a.523.523,0,0,0-.128.241Z" transform="translate(-298.369 -475.03)"/><path class="c" d="M452.6,592.159h3.464l.059-.059a.5.5,0,0,0,0-.71l-1.429-1.419a.506.506,0,0,0-.714,0l-1.434,1.419a.5.5,0,0,0,0,.71Z" transform="translate(-297.569 -475.03)"/><path class="c" d="M453.492,593.037h1.7l.941-.936a.5.5,0,0,0,0-.709l-1.429-1.419a.505.505,0,0,0-.714,0l-1.434,1.419a.5.5,0,0,0,0,.709Z" transform="translate(-297.57 -475.031)"/></g></g></svg>