<svg xmlns="http://www.w3.org/2000/svg" width="24" height="24" viewBox="0 0 24 24"><defs><style>.a{fill:#defff3;}.b{fill:#4936DF;}</style></defs><g transform="translate(-336 -19)"><circle class="a" cx="12" cy="12" r="12" transform="translate(336 19)"/><path class="b" d="M129.167,88.133H128.5a.526.526,0,0,1,0-1.05h11a.526.526,0,0,1,0,1.05h-9.333v9.275a.855.855,0,0,0,.833.875h6a.855.855,0,0,0,.833-.875v-7.7a.5.5,0,1,1,1,0v7.7A1.881,1.881,0,0,1,137,99.333h-6a1.881,1.881,0,0,1-1.833-1.925Zm3.5-1.75a.526.526,0,0,1,0-1.05h2.667a.526.526,0,0,1,0,1.05Zm-.5,4.725a.5.5,0,1,1,1,0v4.2a.5.5,0,1,1-1,0Zm2.667,0a.5.5,0,1,1,1,0v4.2a.5.5,0,1,1-1,0Z" transform="translate(214 -61.333)"/></g></svg>