<svg xmlns="http://www.w3.org/2000/svg" width="16" height="18" viewBox="0 0 16 18"><defs><style>.a{fill:#bcbcbc;}</style></defs><path class="a" d="M129.556,88.933h-.889a.675.675,0,0,1,0-1.35h14.667a.675.675,0,0,1,0,1.35H130.889v11.925A1.118,1.118,0,0,0,132,101.983h8a1.118,1.118,0,0,0,1.111-1.125v-9.9a.667.667,0,1,1,1.333,0v9.9A2.46,2.46,0,0,1,140,103.333h-8a2.46,2.46,0,0,1-2.444-2.475Zm4.667-2.25a.675.675,0,0,1,0-1.35h3.556a.675.675,0,0,1,0,1.35Zm-.667,6.075a.667.667,0,1,1,1.333,0v5.4a.667.667,0,1,1-1.333,0Zm3.556,0a.667.667,0,1,1,1.333,0v5.4a.667.667,0,1,1-1.333,0Z" transform="translate(-128 -85.333)"/></svg>