<svg xmlns="http://www.w3.org/2000/svg" xmlns:xlink="http://www.w3.org/1999/xlink" width="36" height="36" viewBox="0 0 36 36"><defs><style>.a{fill:none;}.b{fill:#838b9c;}.c{clip-path:url(#a);}.d{fill:#fff;}</style><clipPath id="a"><path class="a" d="M0,0H21.394V20.611H0Z"/></clipPath></defs><g transform="translate(-0.009 -0.009)"><circle class="b" cx="18" cy="18" r="18" transform="translate(0.009 0.009)"/><g transform="translate(7.692 7.692)"><path class="a" d="M0,0H21.394V20.611H0Z"/><g class="c"><path class="d" d="M11.693,15.3a.767.767,0,0,1-.765-.766V12.715H9.109a.766.766,0,1,1,0-1.531h1.819V9.365a.766.766,0,1,1,1.531,0v1.819h1.819a.766.766,0,1,1,0,1.531H12.459v1.819A.767.767,0,0,1,11.693,15.3ZM4.356,10.31A4.356,4.356,0,1,1,8.712,5.955,4.361,4.361,0,0,1,4.356,10.31Zm0-7.18A2.824,2.824,0,1,0,7.179,5.955,2.828,2.828,0,0,0,4.356,3.13Zm6.548-1.6H9.085A.766.766,0,1,1,9.085,0H10.9a.766.766,0,0,1,0,1.531Z" transform="translate(6.34 5.311)"/><path class="d" d="M13.077,19.031a.765.765,0,0,0-.766-.766H3.829a2.3,2.3,0,0,1-2.3-2.3V6.538a2.3,2.3,0,0,1,2.3-2.3H5.483l.878-2.456a.382.382,0,0,1,.361-.254h7.953a.388.388,0,0,1,.361.254l.876,2.453h1.654a2.3,2.3,0,0,1,2.3,2.3v4.727a.766.766,0,1,0,1.532,0V6.538a3.828,3.828,0,0,0-3.829-3.829h-.574L16.48,1.271A1.916,1.916,0,0,0,14.678,0H6.72a1.914,1.914,0,0,0-1.8,1.271L4.4,2.709H3.829A3.828,3.828,0,0,0,0,6.538v9.429A3.828,3.828,0,0,0,3.829,19.8h8.482A.768.768,0,0,0,13.077,19.031Z" transform="translate(-0.002)"/></g></g></g></svg>