<svg xmlns="http://www.w3.org/2000/svg" width="24" height="24" viewBox="0 0 24 24"><defs><style>.a{fill:#defff3;}.b{fill:#f7931a;}</style></defs><g transform="translate(-302 -83)"><circle class="a" cx="12" cy="12" r="12" transform="translate(302 83)"/><path class="b" d="M8.553.889a.5.5,0,0,1,.893,0l2.132,4.242a.5.5,0,0,0,.388.272l4.916.578a.5.5,0,0,1,.271.873L13.587,9.98a.5.5,0,0,0-.16.476l.926,4.522a.5.5,0,0,1-.719.545L9.229,13.256a.5.5,0,0,0-.458,0L4.366,15.522a.5.5,0,0,1-.719-.545l.926-4.522a.5.5,0,0,0-.16-.476L.846,6.853a.5.5,0,0,1,.271-.873L6.033,5.4a.5.5,0,0,0,.388-.272Z" transform="translate(305 87)"/></g></svg>