<svg xmlns="http://www.w3.org/2000/svg" width="40" height="40" viewBox="0 0 40 40"><defs><style>.a{fill:#138a5d;}.b{fill:#fff;}</style></defs><g transform="translate(-311 -226)"><circle class="a" cx="20" cy="20" r="20" transform="translate(311 226)"/><g transform="translate(314.977 229.977)"><path class="b" d="M15.961,6.023a5.674,5.674,0,0,0-3.983,1.639l-4.3,4.324a5.629,5.629,0,0,0,0,7.976L12,24.285a5.591,5.591,0,0,0,3.983,1.639,5.674,5.674,0,0,0,3.983-1.639l4.318-4.324a5.641,5.641,0,0,0,0-7.956L19.944,7.662a5.674,5.674,0,0,0-3.983-1.639Z" transform="translate(0 0)"/><path class="a" d="M441.44,466.824a1.722,1.722,0,1,0,1.722,1.722A1.721,1.721,0,0,0,441.44,466.824Zm0,2.533-.81-.81.81-.81.81.81Z" transform="translate(-425.222 -451.759)"/><path class="a" d="M311.122,272.557a6.9,6.9,0,0,1,.912.061,11.6,11.6,0,0,0,1.5.122,3.434,3.434,0,0,0,.466-.02l-.405.81.831.608a3.083,3.083,0,0,1,1.3,2.512,3.141,3.141,0,1,1-5.207-2.35l.405-.365v-.547a2.532,2.532,0,0,0-.162-.851,2.2,2.2,0,0,0,.365.02m4.6-1.5h-.04c-.973.162-1.135.486-2.148.486a10.332,10.332,0,0,1-1.337-.122,6.977,6.977,0,0,0-1.094-.081,6.7,6.7,0,0,0-2.209.344,4.24,4.24,0,0,1,.811,1.7,4.359,4.359,0,1,0,5.43-.223c.405-.831.973-2.107.588-2.107Z" transform="translate(-296.362 -259.949)"/></g></g></svg>