<svg xmlns="http://www.w3.org/2000/svg" width="24" height="24" viewBox="0 0 24 24"><defs><style>.a{fill:#e8e8e8;}.b{fill:#4936DF;}</style></defs><g transform="translate(-273 -34)"><circle class="a" cx="12" cy="12" r="12" transform="translate(273 34)"/><path class="b" d="M12,24a11.968,11.968,0,0,1-8.863-3.911,9.714,9.714,0,0,1,5.671-5.236l3.007,3.007a.265.265,0,0,0,.373,0l3.007-3.007a9.719,9.719,0,0,1,5.67,5.234A11.969,11.969,0,0,1,12,24ZM6.193,8.505A5.807,5.807,0,1,1,12,14.313,5.8,5.8,0,0,1,6.193,8.505Z" transform="translate(273 34)"/></g></svg>