<svg xmlns="http://www.w3.org/2000/svg" width="50" height="50" viewBox="0 0 50 50">
  <g id="组_444" data-name="组 444" transform="translate(-15 -71)">
    <circle id="椭圆_33" data-name="椭圆 33" cx="25" cy="25" r="25" transform="translate(15 71)" fill="#f3f1f7"/>
    <path id="touxiang" d="M128.273,72.9c-6.627,0-12,.367-12-3.83,0-3.454,2.109-6.42,5.7-8.372,1.765-.961,4.118.761,6.3.761,2.492,0,5.05-1.628,6.968-.485,3.183,1.9,5.032,4.527,5.032,8.1C140.273,73.272,134.9,72.9,128.273,72.9Zm0-12.78a7.606,7.606,0,1,1,7.7-7.606,7.652,7.652,0,0,1-7.7,7.606Z" transform="translate(-88.273 37.088)" fill="#9d9d9d"/>
  </g>
</svg>
