<svg xmlns="http://www.w3.org/2000/svg" width="56" height="14" viewBox="0 0 56 14"><defs><style>.a{fill:#4936DF;}</style></defs><path class="a" d="M50.43,14h-.067a8.979,8.979,0,0,1-4.753-1.341l.861-2.515a7.461,7.461,0,0,0,1.672.788,6.188,6.188,0,0,0,1.922.3h.052a1.566,1.566,0,0,0,.958-.319,1.142,1.142,0,0,0,.4-.806,1.267,1.267,0,0,0-.5-.989A5.966,5.966,0,0,0,49.452,8.3a8.961,8.961,0,0,1-1.706-.821,4.709,4.709,0,0,1-1.126-1.023,3.5,3.5,0,0,1-.5-.922,4.288,4.288,0,0,1-.212-.975l3.954.237a5.235,5.235,0,0,0,1.359.653,12.062,12.062,0,0,1,1.9.905,6.328,6.328,0,0,1,.944.755,3.537,3.537,0,0,1,.712,1.207A5.337,5.337,0,0,1,55,9.808a5.585,5.585,0,0,1-.215,1.426,3.9,3.9,0,0,1-.895,1.475,4.362,4.362,0,0,1-1.49.939A5.712,5.712,0,0,1,50.43,14ZM39.41,14a8.3,8.3,0,0,1-2.451-.368,4.633,4.633,0,0,1-1.723-1.074,4.389,4.389,0,0,1-.977-1.794,6.463,6.463,0,0,1-.216-1.778V3.846l3.313.2v5.11a2.21,2.21,0,0,0,.563,1.559,2.054,2.054,0,0,0,1.49.6,2.012,2.012,0,0,0,1.457-.6,2.279,2.279,0,0,0,.58-1.559V4.29l3.329.2v4.5a8.015,8.015,0,0,1-.232,1.778,4.389,4.389,0,0,1-.977,1.794,4.633,4.633,0,0,1-1.723,1.074A8.247,8.247,0,0,1,39.41,14Zm-13.751-.334H22.347V3.143l5.6.336,1.573,7.1h.05v-7l3.312.2v9.888H27.911l-2.2-9.775h-.05v9.775Zm-4.478,0H5.234L10.443,3.99l3.392.289-.873,1.4h7.546V8.1h-8.65L10.2,10.982H21.181v2.682Zm-17.13,0H-1V.336H2.594L2.46,3.018H-.972l3.417.291-.376,7.539H2.1L5.914,3.6l3.409.291-5.272,9.77ZM53.527,3.37h0a7.161,7.161,0,0,0-2.748-.586,2.061,2.061,0,0,0-.97.235h-3.8a4.444,4.444,0,0,1,.211-.653A3.589,3.589,0,0,1,47.2,1.04,4.179,4.179,0,0,1,48.79.218,6.909,6.909,0,0,1,50.379,0a8.659,8.659,0,0,1,3.826.888l-.678,2.48Zm-8.751-.352H41.447V.336h3.329V3.017Zm-7.419,0H34.044V.336h3.313V3.017Zm-4.478,0H29.567V.336h3.312V3.017Zm-5.036,0h-5.5V.336h4.9l.594,2.681Zm-6.678,0h-10.2L12.409.336h8.755V3.017ZM9.8,3.018H6.223L7.634.336h3.61L9.8,3.017Z" transform="translate(1)"/></svg>