<svg xmlns="http://www.w3.org/2000/svg" width="14" height="16" viewBox="0 0 14 16"><defs><style>.a{fill:#838b9c;}</style></defs><path class="a" d="M173.652,100.278c-.153.006-.3.008-.452.008-3.885,0-5.6-1.592-5.613-1.606l-.387-.38-.391.38c-.016.017-1.694,1.606-5.611,1.606-.147,0-.3,0-.452-.008l-.546-.017v7.218c0,1.889.706,4.646,6.809,6.756l.191.066.191-.066c6.1-2.109,6.809-4.866,6.809-6.756v-7.218l-.548.017m-7.054,9.067-3.516-2.961.933-.719,1.87,1.311a22.934,22.934,0,0,1,5.075-3.727l.357.382a19.239,19.239,0,0,0-4.718,5.714m0,0" transform="translate(-160.2 -98.3)"/></svg>