<svg xmlns="http://www.w3.org/2000/svg" width="40" height="40" viewBox="0 0 40 40"><defs><style>.a,.c{fill:#138a5d;}.b{fill:#fff;}.c{stroke:#138a5d;stroke-width:0.5px;}</style></defs><g transform="translate(-74 -230)"><circle class="a" cx="20" cy="20" r="20" transform="translate(74 230)"/><path class="b" d="M86.2,128h16.2a.9.9,0,0,1,.9.889v14.221a.9.9,0,0,1-.9.889H86.2a.9.9,0,0,1-.9-.889V128.889A.9.9,0,0,1,86.2,128Z" transform="translate(-0.3 114)"/><path class="c" d="M106.5,190.993l4.654-4.819a.44.44,0,1,0-.633-.611l-4.044,4.187-2.03-1.961-4.227,4.377a.44.44,0,1,0,.633.611l3.616-3.745,2.03,1.961Z" transform="translate(-11.601 60.83)"/></g></svg>