<svg xmlns="http://www.w3.org/2000/svg" xmlns:xlink="http://www.w3.org/1999/xlink" width="20" height="20" viewBox="0 0 20 20"><defs><style>.a{fill:#fff;stroke:#707070;}.b{clip-path:url(#a);}.c{fill:#838b9c;}.d{fill:none;}.e,.f{stroke:none;}.f{fill:#838b9c;}</style><clipPath id="a"><rect class="a" width="20" height="20" transform="translate(1700 237)"/></clipPath></defs><g class="b" transform="translate(-1700 -237)"><g transform="translate(1 22)"><path class="c" d="M2.4,5.34V4.276H.614a.567.567,0,0,1-.6-.532.567.567,0,0,1,.6-.532H2.237L.149.884A.489.489,0,0,1,.038.346.587.587,0,0,1,.516,0,.63.63,0,0,1,1.079.22L3,2.361,4.921.22A.63.63,0,0,1,5.484,0a.587.587,0,0,1,.478.341.489.489,0,0,1-.111.537L3.764,3.212H5.386a.567.567,0,0,1,.6.532.567.567,0,0,1-.6.532H3.6V5.34H5.386a.567.567,0,0,1,.6.532.567.567,0,0,1-.6.532H3.6V7.468a.524.524,0,0,1-.3.461.66.66,0,0,1-.6,0,.524.524,0,0,1-.3-.461V6.4H.614a.567.567,0,0,1-.6-.532.567.567,0,0,1,.6-.532Z" transform="translate(1706 221)"/><g class="d" transform="translate(1718 215) rotate(90)"><path class="e" d="M13.823,0a2,2,0,0,1,1.748,1.029l3.889,7a2,2,0,0,1,0,1.943l-3.889,7A2,2,0,0,1,13.823,18H6.177a2,2,0,0,1-1.748-1.029l-3.889-7a2,2,0,0,1,0-1.943l3.889-7A2,2,0,0,1,6.177,0Z"/><path class="f" d="M 6.176811218261719 1.299999237060547 C 5.922751426696777 1.299999237060547 5.688270568847656 1.437959671020508 5.56489086151123 1.660049438476562 L 1.676010131835938 8.660039901733398 C 1.557750701904297 8.872909545898438 1.557750701904297 9.127079963684082 1.676000595092773 9.339940071105957 L 5.56489086151123 16.33995056152344 C 5.688270568847656 16.56204032897949 5.922751426696777 16.70000076293945 6.176811218261719 16.70000076293945 L 13.82319068908691 16.70000076293945 C 14.07725143432617 16.70000076293945 14.31173133850098 16.56204032897949 14.4351110458374 16.33995056152344 L 18.3239917755127 9.339960098266602 C 18.44225120544434 9.127090454101562 18.44225120544434 8.872909545898438 18.32400131225586 8.660050392150879 L 14.4351110458374 1.660049438476562 C 14.31173133850098 1.437959671020508 14.07725143432617 1.299999237060547 13.82319068908691 1.299999237060547 L 6.176811218261719 1.299999237060547 M 6.176811218261719 0 L 13.82319068908691 0 C 14.54953098297119 0 15.21877098083496 0.3937797546386719 15.57151031494141 1.028709411621094 L 19.46040153503418 8.02871036529541 C 19.79598045349121 8.632760047912598 19.79598045349121 9.367239952087402 19.46040153503418 9.97128963470459 L 15.57151031494141 16.97129058837891 C 15.21877098083496 17.60622024536133 14.54953098297119 18 13.82319068908691 18 L 6.176811218261719 18 C 5.450470924377441 18 4.781230926513672 17.60622024536133 4.42849063873291 16.97129058837891 L 0.5396003723144531 9.971280097961426 C 0.2040214538574219 9.367239952087402 0.2040214538574219 8.632760047912598 0.5396003723144531 8.02871036529541 L 4.42849063873291 1.028709411621094 C 4.781230926513672 0.3937797546386719 5.450470924377441 0 6.176811218261719 0 Z"/></g></g></g></svg>