<svg xmlns="http://www.w3.org/2000/svg" width="40" height="40" viewBox="0 0 40 40"><defs><style>.a{fill:#defff3;}.b{fill:#138a5d;stroke-miterlimit:10;}.c{fill:#fff;}.d,.e{stroke:none;}.e{fill:#4936DF;}</style></defs><g transform="translate(-123 -371)"><rect class="a" width="40" height="40" rx="15" transform="translate(123 371)"/><g class="b" transform="translate(137.104 378)"><path class="d" d="M 9.525559425354004 3.402038335800171 L 0.2499992400407791 3.402038335800171 L 0.2499992400407791 0.2499983310699463 L 9.525559425354004 0.2499983310699463 L 9.525559425354004 3.402038335800171 Z"/><path class="e" d="M 0.4999990463256836 0.4999983310699463 L 0.4999990463256836 3.152038335800171 L 9.275559425354004 3.152038335800171 L 9.275559425354004 0.4999983310699463 L 0.4999990463256836 0.4999983310699463 M 0.1999588012695312 -1.668930053710938e-06 L 9.575599670410156 -1.668930053710938e-06 C 9.709029197692871 -1.668930053710938e-06 9.775559425354004 0.06556844711303711 9.775559425354004 0.1965782642364502 L 9.775559425354004 3.455458402633667 C 9.775559425354004 3.586588382720947 9.709029197692871 3.652038335800171 9.575599670410156 3.652038335800171 L 0.1999588012695312 3.652038335800171 C 0.06668949127197266 3.652038335800171 -9.5367431640625e-07 3.586588382720947 -9.5367431640625e-07 3.455458402633667 L -9.5367431640625e-07 0.1965782642364502 C -9.5367431640625e-07 0.06556844711303711 0.06668949127197266 -1.668930053710938e-06 0.1999588012695312 -1.668930053710938e-06 Z"/></g><g class="b" transform="translate(131.498 380.388)"><path class="d" d="M 12.70477104187012 23.36475944519043 L 0.6963874697685242 23.36475944519043 C 0.4502474665641785 23.36475944519043 0.2499974519014359 23.16163063049316 0.2499974519014359 22.91194915771484 L 0.2499974519014359 0.702809751033783 C 0.2499974519014359 0.4531297087669373 0.4502474665641785 0.2499997168779373 0.6963874697685242 0.2499997168779373 L 4.197147369384766 0.2499997168779373 L 4.197147369384766 1.732249736785889 C 4.197147369384766 2.257629632949829 4.62210750579834 2.685059785842896 5.144457340240479 2.685059785842896 L 15.84532737731934 2.685059785842896 C 16.36766815185547 2.685059785842896 16.79262733459473 2.257629632949829 16.79262733459473 1.732249736785889 L 16.79262733459473 0.2499997168779373 L 20.29338836669922 0.2499997168779373 C 20.53952789306641 0.2499997168779373 20.73977661132812 0.4531297087669373 20.73977661132812 0.702809751033783 C 20.73981666564941 0.7595115900039673 20.74341011047363 6.289340496063232 20.75455665588379 11.80816555023193 C 19.83832359313965 11.39642715454102 18.83426094055176 11.18027019500732 17.82656669616699 11.18027019500732 L 17.81479835510254 11.18027973175049 C 13.86276721954346 11.18027973175049 10.64721775054932 14.39376926422119 10.64721775054932 18.34368896484375 C 10.64209175109863 20.22693824768066 11.38492584228516 22.0238151550293 12.70477104187012 23.36475944519043 Z"/><path class="e" d="M 12.13889503479004 23.11475944519043 C 11.01624965667725 21.78357887268066 10.39243698120117 20.09970092773438 10.39721775054932 18.34368896484375 C 10.39721775054932 14.25591945648193 13.7249174118042 10.93027973175049 17.81388664245605 10.93027973175049 L 17.82656669616699 10.93027019500732 C 18.74143028259277 10.93027019500732 19.65347671508789 11.10244083404541 20.50380897521973 11.43238067626953 C 20.49324989318848 6.041221141815186 20.48981475830078 0.7583741545677185 20.48977661132812 0.702809751033783 C 20.48977661132812 0.5928797125816345 20.39983749389648 0.4999997317790985 20.29338836669922 0.4999997317790985 L 17.04262733459473 0.4999997317790985 L 17.04262733459473 1.732249736785889 C 17.04262733459473 2.395479679107666 16.50551795959473 2.935059785842896 15.84532737731934 2.935059785842896 L 5.144457340240479 2.935059785842896 C 4.484257221221924 2.935059785842896 3.947147369384766 2.395479679107666 3.947147369384766 1.732249736785889 L 3.947147369384766 0.4999997317790985 L 0.6963874697685242 0.4999997317790985 C 0.5899374485015869 0.4999997317790985 0.499997466802597 0.5928797125816345 0.499997466802597 0.702809751033783 L 0.499997466802597 22.91194915771484 C 0.499997466802597 23.02187919616699 0.5899374485015869 23.11475944519043 0.6963874697685242 23.11475944519043 L 12.13889503479004 23.11475944519043 M 13.34053707122803 23.61475944519043 L 0.6963874697685242 23.61475944519043 C 0.3137874603271484 23.61475944519043 -2.545776396800647e-06 23.29913902282715 -2.545776396800647e-06 22.91194915771484 L -2.545776396800647e-06 0.702809751033783 C -2.545776396800647e-06 0.3174597322940826 0.3137874603271484 -2.774047800357948e-07 0.6963874697685242 -2.774047800357948e-07 L 4.447147369384766 -2.774047800357948e-07 L 4.447147369384766 1.732249736785889 C 4.447147369384766 2.117599725723267 4.760937690734863 2.435059785842896 5.144457340240479 2.435059785842896 L 15.84532737731934 2.435059785842896 C 16.22883796691895 2.435059785842896 16.54262733459473 2.11851978302002 16.54262733459473 1.732249736785889 L 16.54262733459473 -2.774047800357948e-07 L 20.29338836669922 -2.774047800357948e-07 C 20.67598724365234 -2.774047800357948e-07 20.98977661132812 0.3165397346019745 20.98977661132812 0.702809751033783 C 20.98977661132812 0.702809751033783 20.99344825744629 6.494099617004395 21.0053768157959 12.20740985870361 C 20.02272987365723 11.6954402923584 18.92756652832031 11.42832279205322 17.81520652770996 11.43027973175049 C 13.99471759796143 11.43027973175049 10.89721775054932 14.5250301361084 10.89721775054932 18.34368896484375 C 10.89170742034912 20.36678886413574 11.78443717956543 22.29171943664551 13.34053707122803 23.61475944519043 Z"/></g><g class="b" transform="translate(143.501 393.002)"><path class="d" d="M 5.500875473022461 10.75143527984619 C 2.605535268783569 10.75143527984619 0.2500052452087402 8.395685195922852 0.2500052452087402 5.500085353851318 C 0.2500052452087402 2.605185270309448 2.605535268783569 0.2500052452087402 5.500875473022461 0.2500052452087402 C 8.396045684814453 0.2500052452087402 10.75143527984619 2.605745315551758 10.75143527984619 5.501345157623291 C 10.75143527984619 8.396255493164062 8.396045684814453 10.75143527984619 5.500875473022461 10.75143527984619 Z"/><path class="e" d="M 5.500875473022461 0.499995231628418 C 2.743385314941406 0.499995231628418 0.499995231628418 2.743024826049805 0.499995231628418 5.500085353851318 C 0.499995231628418 8.257835388183594 2.743385314941406 10.50142478942871 5.500875473022461 10.50142478942871 C 8.258185386657715 10.50142478942871 10.50142478942871 8.258395195007324 10.50142478942871 5.501345157623291 C 10.50142478942871 2.743595123291016 8.258185386657715 0.499995231628418 5.500875473022461 0.499995231628418 M 5.500875473022461 -4.76837158203125e-06 C 8.53863525390625 -4.76837158203125e-06 11.00142478942871 2.463604927062988 11.00142478942871 5.501345157623291 C 11.00142478942871 8.539035797119141 8.53803539276123 11.00142478942871 5.500875473022461 11.00142478942871 C 2.463874816894531 11.00142478942871 -4.76837158203125e-06 8.537505149841309 -4.76837158203125e-06 5.500085353851318 C -4.76837158203125e-06 2.462665557861328 2.462955474853516 -4.76837158203125e-06 5.500875473022461 -4.76837158203125e-06 Z"/></g><path class="c" d="M6,4.9c0-.12-.009-.24-.017-.359l0-.034q-.018-.22-.055-.439c0-.02-.005-.04-.009-.06q-.037-.2-.09-.391c-.008-.031-.014-.063-.023-.093q-.052-.173-.116-.342c-.015-.041-.028-.083-.045-.124-.041-.1-.089-.2-.137-.3-.023-.049-.044-.1-.069-.147-.048-.092-.1-.18-.159-.269-.031-.05-.058-.1-.09-.151-.061-.092-.129-.179-.2-.267-.022-.029-.041-.059-.064-.087l.408-.408L4.564.665l-.408.408A4.855,4.855,0,0,0,1.464.016,5.034,5.034,0,0,0,.935,0L.943.264l-.1.808A6,6,0,0,1,3,2.226l-3,3L.771,6l3-3A6,6,0,0,1,4.928,5.162L6,5.024c0-.04,0-.08,0-.12H6Z" transform="translate(146.002 401.503) rotate(-90)"/><rect class="c" width="8.156" height="2.039" transform="translate(136.362 387.392)"/><rect class="c" width="4.078" height="2.039" transform="translate(136.362 392.489)"/></g></svg>